<svg width="81" height="33" viewBox="0 0 81 33" fill="none" xmlns="http://www.w3.org/2000/svg">
<g clip-path="url(#clip0_27_46)">
<path d="M1.50903 25.21H0.913362C0.913362 25.21 0.902016 25.2042 0.896343 25.2042V26.3826L1.5374 25.5177C1.6849 25.3145 1.67923 25.2158 1.50903 25.2158V25.21Z" fill="#B12028"/>
<path d="M5.34403 24.8153H5.54826C5.71845 24.8153 5.80354 24.7282 5.80354 24.5541V24.1594C5.80354 23.9736 5.72412 23.8749 5.57095 23.8749H5.34403C5.17383 23.8749 5.08874 23.962 5.08874 24.1362V24.5541C5.08874 24.7282 5.17383 24.8153 5.34403 24.8153Z" fill="#B12028"/>
<path d="M4.70297 28.6232C4.70297 28.5245 4.80508 28.4781 5.00931 28.4781H5.92835C6.13258 28.4781 6.2347 28.5245 6.2347 28.6232C6.2347 28.7277 6.31979 28.7799 6.48998 28.7799H9.88248V27.7699C9.77469 27.8279 9.64988 27.8686 9.50238 27.8918H7.70402C7.49979 27.8918 7.39767 27.7873 7.39767 27.5783V27.0849C7.39767 26.876 7.4544 26.7018 7.56219 26.5625L8.36209 25.5177C8.53796 25.2855 8.53796 25.1752 8.35075 25.1752H7.70402C7.49979 25.1752 7.39767 25.0707 7.39767 24.8617V24.3683C7.39767 24.1593 7.44873 23.9852 7.55085 23.8459C7.78912 23.4976 8.03873 23.1493 8.29969 22.801C8.49825 22.5224 8.69113 22.3831 8.88402 22.3831H9.76334C9.8144 22.3831 9.85411 22.3889 9.88248 22.4063V21.4369C9.36623 21.4601 8.97479 21.4195 8.73084 21.3034C8.49825 21.1641 8.37911 20.9435 8.36209 20.6359V15.876C8.36209 15.7018 8.277 15.6148 8.10681 15.6148H1.13461C1.02682 15.6148 0.953074 15.5799 0.902016 15.5219V16.3171C0.936055 16.2765 0.987112 16.2533 1.06654 16.2533H1.8948C2.09903 16.2533 2.24086 16.3578 2.32596 16.5667L2.50182 17.0195C2.57557 17.1878 2.72874 17.2691 2.94999 17.2691C3.17124 17.2691 3.29605 17.182 3.29605 17.0079V16.4971C3.29605 16.2823 3.39249 16.172 3.59105 16.172H4.52143C4.72566 16.172 4.82778 16.2765 4.82778 16.4855V17.0079C4.82778 17.182 4.91287 17.2691 5.08306 17.2691H5.31566C5.48585 17.2691 5.61066 17.1588 5.69576 16.9324L5.82056 16.6422C5.92268 16.3868 6.07585 16.2533 6.28008 16.2533H7.08566C7.28989 16.2533 7.35229 16.3578 7.26719 16.5667L7.10267 16.9963C7.02892 17.1762 7.07998 17.2691 7.25585 17.2691H7.46008C7.66431 17.2691 7.76642 17.3736 7.76642 17.5826V18.105C7.76642 18.314 7.66431 18.4185 7.46008 18.4185H5.07739C4.9072 18.4185 4.8221 18.5055 4.8221 18.6797V21.1177C4.8221 21.3266 4.71999 21.4311 4.51576 21.4311H3.59672C3.39249 21.4311 3.29038 21.3266 3.29038 21.1177V18.6797C3.29038 18.5055 3.20528 18.4185 3.03509 18.4185H0.896343V20.009C0.953074 19.9509 0.987112 19.8696 0.998458 19.7768L1.08923 19.4401C1.1573 19.2079 1.28211 19.0976 1.46932 19.0976H2.32028C2.52451 19.0976 2.59826 19.2021 2.53586 19.4111L2.1898 20.5604C2.07634 20.9435 1.86076 21.1525 1.55442 21.1757C1.4523 21.2163 1.28778 21.2338 1.05519 21.2163C0.992785 21.2163 0.947401 21.1873 0.902016 21.1699V23.6369L1.50336 22.7198C1.64519 22.4992 1.81538 22.3831 2.00259 22.3831H2.91028C3.11451 22.3831 3.14855 22.4876 3.0124 22.6966L2.2749 23.8459C2.14442 24.0491 2.16144 24.1477 2.32596 24.1477H2.91028C3.11451 24.1477 3.21663 24.2522 3.21663 24.4612V24.943C3.21663 25.152 3.16557 25.3261 3.06345 25.4654L2.28624 26.5103C2.14442 26.7192 2.16144 26.8237 2.34865 26.8237C2.53019 26.8528 2.67769 26.8237 2.78547 26.7425C2.84788 26.6844 2.88192 26.6264 2.88759 26.5567C2.89893 26.4522 2.9897 26.4 3.15422 26.4C3.35845 26.4 3.46057 26.5045 3.46057 26.7134C3.53432 27.41 3.27336 27.8047 2.67201 27.8976H0.919035C0.919035 27.8976 0.907689 27.8918 0.902016 27.8918V28.7857H4.44768C4.61787 28.7857 4.70297 28.7335 4.70297 28.629V28.6232ZM5.75816 19.086H6.63748C6.84171 19.086 6.97219 19.1905 7.0346 19.3995L7.13671 19.7129C7.14239 19.9335 7.27854 20.0786 7.53383 20.1425C7.63594 20.1425 7.687 20.2469 7.687 20.4559V20.8971C7.687 21.1061 7.58489 21.2105 7.38065 21.2105H6.64316C6.40489 21.1815 6.212 21.0596 6.05883 20.8332C5.95672 20.6649 5.86027 20.3863 5.76383 19.9973L5.59931 19.4401C5.52556 19.2021 5.57662 19.086 5.75249 19.086H5.75816ZM3.97114 27.5725V24.7166C3.97114 24.5425 3.92576 24.4554 3.84066 24.4554C3.76124 24.4554 3.69884 24.3509 3.65913 24.1419L3.5797 23.7124C3.53432 23.4918 3.55134 23.3757 3.64211 23.3757C3.74989 23.3873 3.85768 23.3119 3.97114 23.1377L4.12432 22.6559C4.19239 22.4353 4.32287 22.3192 4.51008 22.3192H5.23624C5.44047 22.3192 5.51989 22.3947 5.48018 22.5514C5.44047 22.7198 5.50287 22.801 5.66172 22.801H6.64316C6.84739 22.801 6.9495 22.9055 6.9495 23.1145V27.0559C6.94383 27.5261 6.68287 27.7989 6.16095 27.8802H4.27749C4.07326 27.8802 3.97114 27.7757 3.97114 27.5667V27.5725Z" fill="#B12028"/>
<path d="M1.0325 16.9731L0.902016 16.6306V17.2517C1.04952 17.2343 1.10057 17.1414 1.0325 16.9789V16.9731Z" fill="#B12028"/>
<path d="M9.88248 30.0222H6.48998C6.31979 30.0222 6.2347 30.1092 6.2347 30.2834V32.0422H8.0671C7.97065 31.9145 7.90258 31.7636 7.86854 31.5778C7.82315 31.3689 7.76075 31.1599 7.687 30.9509C7.61892 30.7303 7.687 30.6142 7.89123 30.6142H8.84431C9.04854 30.6142 9.17902 30.7187 9.23007 30.9277C9.25844 31.1077 9.34353 31.2354 9.48536 31.3166C9.49103 31.3166 9.49671 31.3166 9.50805 31.3166C9.74065 31.009 9.88248 30.6259 9.88248 30.2021V30.0164V30.0222Z" fill="#B12028"/>
<path d="M9.88248 5.74088V4.49286H8.28267C8.11248 4.49286 8.02739 4.57993 8.02739 4.75407V5.45645C8.02739 5.63059 8.11248 5.71766 8.28267 5.71766H9.80873C9.84277 5.71766 9.85411 5.73508 9.88248 5.74088Z" fill="#B12028"/>
<path d="M8.34508 6.9599H6.15527C5.98508 6.9599 5.89999 7.04697 5.89999 7.22111V8.97995C5.89999 9.1541 5.98508 9.24117 6.15527 9.24117H8.10681C8.48123 9.276 8.64008 9.10766 8.57767 8.73035V7.24433C8.57767 7.05858 8.49825 6.9599 8.34508 6.9599Z" fill="#B12028"/>
<path d="M5.5596 25.8834H5.34403C5.17383 25.8834 5.08874 25.9704 5.08874 26.1446V26.5625C5.08874 26.7367 5.16816 26.8237 5.33268 26.8237C5.7071 26.8644 5.86595 26.6728 5.80354 26.2375C5.80354 25.9995 5.72412 25.8834 5.5596 25.8834Z" fill="#B12028"/>
<path d="M2.41105 12.8865C2.33163 13.0955 2.37134 13.2 2.54153 13.2H9.752C9.80873 13.2 9.84276 13.229 9.88248 13.2464V12.5731H2.7798C2.61528 12.5731 2.49615 12.6775 2.41105 12.8865Z" fill="#B12028"/>
<path d="M8.02739 2.98363C8.02739 3.15777 8.11248 3.24484 8.28267 3.24484H9.88248V2.79207C9.88248 2.50764 9.8144 2.24642 9.70094 2.00262C9.59315 2.0897 9.47969 2.14774 9.34354 2.16516C8.99181 2.18838 8.6344 2.19418 8.28267 2.18838C8.11248 2.18838 8.02739 2.27545 8.02739 2.44959V2.98363Z" fill="#B12028"/>
<path d="M9.04286 23.8227C8.91238 24.0026 8.94075 24.0955 9.12229 24.0955H9.77469C9.82007 24.0955 9.84277 24.1187 9.87681 24.1303V22.6269C9.87681 22.6269 9.85411 22.6675 9.83709 22.6965L9.03719 23.8285L9.04286 23.8227Z" fill="#B12028"/>
<path d="M2.94432 31.6649C2.88759 31.8158 2.81384 31.9377 2.72874 32.0422H4.70297V30.2834C4.70297 30.1092 4.61787 30.0222 4.44768 30.0222H0.896343V30.2079C0.896343 30.6258 1.03817 31.009 1.27077 31.3224C1.42394 31.2702 1.55442 31.1715 1.67355 31.0206C1.78701 30.7536 1.95153 30.6258 2.15576 30.6258H3.1372C3.34143 30.6258 3.39816 30.7303 3.30172 30.9393C3.17124 31.1831 3.05211 31.4269 2.94432 31.6707V31.6649Z" fill="#B12028"/>
<path d="M2.37701 1.19576C2.44509 1.54405 2.59259 1.75883 2.82519 1.83429H3.31307C3.5173 1.83429 3.61941 1.93877 3.61941 2.14774V2.75724C3.61941 2.96621 3.5173 3.0707 3.31307 3.0707H1.90048C1.60548 3.05909 1.37288 2.86753 1.19702 2.49603L1.05519 2.04326C0.953074 2.27545 0.896344 2.52505 0.896344 2.79788V3.85434C0.896344 3.85434 0.936055 3.83693 0.964421 3.83693H1.90615C2.11038 3.83693 2.25221 3.94141 2.3373 4.15038C2.46211 4.67281 2.68903 4.905 3.03509 4.84115H3.31874C3.52297 4.84115 3.62509 4.94563 3.62509 5.1546V5.76991C3.62509 5.97888 3.52297 6.08336 3.31874 6.08336H1.90615C1.61115 6.07175 1.37855 5.8802 1.20269 5.50869L0.902017 4.5335V9.24695C1.19702 9.26437 1.38423 9.09603 1.44663 8.70711C1.54875 8.22532 1.66221 7.74352 1.78134 7.26173C1.83807 7.04115 1.95721 6.92505 2.15009 6.92505H3.15422C3.35845 6.92505 3.43788 7.02954 3.38682 7.23851L2.68903 9.93772C2.52451 10.2628 2.28057 10.4427 1.95153 10.4718H1.02115C0.964421 10.4718 0.936055 10.4427 0.890671 10.4311V12.5441C0.987113 12.4976 1.06654 12.3989 1.12327 12.2306C1.18567 12.0623 1.25375 11.8939 1.33884 11.7198C1.43528 11.4992 1.58278 11.3831 1.77567 11.3831H2.70605C2.91028 11.3831 2.9897 11.4295 2.94999 11.5282C2.88192 11.6443 2.93865 11.7082 3.11451 11.7082H9.87113V10.2396C9.74065 10.3615 9.56479 10.4427 9.32652 10.466H4.66326C4.45903 10.466 4.35691 10.3615 4.35691 10.1525V6.01951C4.35691 5.81054 4.45903 5.70606 4.66326 5.70606H6.22902C6.39922 5.70606 6.48431 5.61898 6.48431 5.44484V4.74247C6.48431 4.56832 6.39922 4.48125 6.22902 4.48125H4.57249C4.36826 4.48125 4.26614 4.37677 4.26614 4.1678V3.55249C4.26614 3.34352 4.36826 3.23904 4.57249 3.23904H6.22902C6.39922 3.23904 6.48431 3.15197 6.48431 2.97782V2.44379C6.48431 2.26964 6.39922 2.18257 6.22902 2.18257H4.72566C4.52143 2.18257 4.4023 2.07809 4.36826 1.86912L4.28884 1.34669C4.24912 1.07967 4.32855 0.951965 4.53278 0.951965H2.68336C2.54721 0.951965 2.41672 0.96938 2.29192 0.998403L2.36567 1.18996L2.37701 1.19576Z" fill="#B12028"/>
<path d="M0.947401 13.7514C0.947401 13.6644 0.924709 13.6179 0.896343 13.5831V14.6163C0.947401 14.5583 1.02115 14.5293 1.12327 14.5293H9.58748C9.77469 14.5293 9.87113 14.628 9.88248 14.8079V13.8791C9.84276 13.8966 9.80873 13.9256 9.752 13.9256H1.25375C1.04952 13.9256 0.947401 13.8675 0.947401 13.7456V13.7514Z" fill="#B12028"/>
<path d="M9.88248 19.9103V19.7942C9.88248 19.8348 9.8768 19.8755 9.88248 19.9103Z" fill="#B12028"/>
<path d="M9.17902 26.8237C9.3719 26.8586 9.52507 26.8237 9.63853 26.7308C9.68392 26.6902 9.71228 26.6322 9.71796 26.5509C9.7293 26.4754 9.79171 26.4348 9.88248 26.4174V25.477L9.11661 26.4696C8.94075 26.7076 8.95777 26.8237 9.17902 26.8237Z" fill="#B12028"/>
<path d="M8.83296 33H1.94586C0.873652 33 0 32.1061 0 31.009V1.99103C0 0.893932 0.873652 0 1.94586 0H8.83863C9.91084 0 10.7845 0.893932 10.7845 1.99103V31.009C10.7845 32.1061 9.91084 33 8.83863 33H8.83296ZM1.94586 0.35409C1.06654 0.35409 0.346057 1.09129 0.346057 1.99103V31.009C0.346057 31.9087 1.06086 32.6459 1.94586 32.6459H8.83863C9.71796 32.6459 10.4384 31.9145 10.4384 31.009V1.99103C10.4384 1.09129 9.72363 0.35409 8.83863 0.35409H1.94586Z" fill="#B12028"/>
<path d="M37.0224 18.4998V16.4449H40.3865C45.4639 16.4449 48.0735 14.5003 48.0735 10.6633V9.46756H40.0915V7.41268H50.3257V10.6633C50.3257 15.6903 46.8765 18.4998 40.6588 18.4998H37.0224ZM50.3257 7.41268V10.6633C50.3257 15.6903 46.8765 18.4998 40.6588 18.4998H37.0224V16.4449H40.3865C45.4639 16.4449 48.0735 14.5003 48.0735 10.6633V9.46756H40.0915V7.41268H50.3257ZM50.4676 7.26756H39.9497V9.61268H47.9317V10.6633C47.9317 14.4016 45.3959 16.2997 40.3865 16.2997H36.8806V18.6449H40.6588C46.9843 18.6449 50.4676 15.8122 50.4676 10.6633V7.26756ZM57.4284 1.10292H55.2443V18.5404H57.4284V1.10872V1.10292ZM57.4284 1.10292V18.5404H55.2443V1.10872H57.4284M57.5703 0.963602H55.1025V18.6913H57.5703V0.963602ZM77.0289 29.9757H74.805V23.1435H66.0345V21.0887H75.8092C76.5977 21.0887 77.0289 21.5356 77.0289 22.3367V29.9757ZM75.8092 21.0829C76.5977 21.0829 77.0289 21.5298 77.0289 22.3309V29.9699H74.805V23.1377H66.0345V21.0829H75.8092ZM75.8092 20.9377H65.8926V23.2829H74.6632V30.1151H77.1707V22.3309C77.1707 21.4428 76.6715 20.9377 75.8092 20.9377ZM70.1361 16.1895V18.5404H60.5032C59.8508 18.5404 59.0226 17.7625 59.0226 16.8396V10.6866H67.9463V7.63326H59.0226V5.28234H68.7802C69.4326 5.28234 69.7957 5.79315 69.7957 6.71611V13.0143H60.8663V16.1953H70.1304L70.1361 16.1895ZM68.7859 5.28234C69.4383 5.28234 69.8014 5.79315 69.8014 6.71611V13.0143H60.872V16.1953H70.1361V18.5462H60.5032C59.8508 18.5462 59.0226 17.7684 59.0226 16.8454V10.6924H67.9463V7.63906H59.0226V5.28814H68.7802M68.7802 5.14302H58.8807V7.78418H67.8045V10.5472H58.8807V16.8454C58.8807 17.838 59.7714 18.6913 60.5032 18.6913H70.2779V16.0501H61.0138V13.1594H69.9432V6.71611C69.9432 5.71189 69.5234 5.13722 68.7859 5.13722L68.7802 5.14302ZM80.8582 9.41532V7.41268H77.0686V1.10872H74.8391V11.9462C74.8391 16.4449 76.7679 18.3372 79.213 18.5056V16.4507C77.9082 15.9515 77.0686 14.5641 77.0686 11.447V9.42112H80.8582V9.41532ZM77.0686 1.10872V7.41848H80.8582V9.42112H77.0686V11.447C77.0686 14.5583 77.9082 15.9457 79.213 16.4507V18.5056C76.7679 18.3372 74.8391 16.4507 74.8391 11.9462V1.10872H77.0686ZM77.2104 0.963602H74.6972V11.9462C74.6972 17.5071 77.5167 18.5346 79.2016 18.6449L79.3548 18.6565V16.3462L79.264 16.3114C77.8628 15.7715 77.2104 14.2275 77.2104 11.447V9.56624H81V7.27337H77.2104V0.963602ZM25.9656 27.561H34.7078V22.2554C34.7078 21.4486 34.271 21.0074 33.4881 21.0074H23.7418V23.0623H32.484V25.5351H23.7418V30.9509C23.7418 31.7578 24.1786 32.199 24.9615 32.199H35.2241V30.1441H25.9656V27.561ZM33.4881 21.0016C34.2766 21.0016 34.7078 21.4486 34.7078 22.2496V27.5552H25.9656V30.1383H35.2241V32.1932H24.9615C24.1729 32.1932 23.7418 31.7462 23.7418 30.9451V25.5293H32.484V23.0565H23.7418V21.0016H33.4881ZM33.4881 20.8565H23.5999V23.2016H32.3421V25.3842H23.5999V30.9451C23.5999 31.8333 24.0992 32.3383 24.9615 32.3383H35.3659V29.9932H26.1074V27.7003H34.8496V22.2496C34.8496 21.3615 34.3504 20.8565 33.4881 20.8565ZM35.2241 7.41848V1.10292H32.9945V15.6612C32.8697 16.0966 32.5123 16.5377 31.5536 16.5377C31.4458 16.5377 31.3493 16.5377 31.2586 16.5494H24.3998V13.1478C26.5896 12.7182 28.093 11.0058 28.093 8.74197C28.093 8.16149 27.9682 7.58102 27.6732 7.12825H25.7047C25.977 7.5578 26.0734 8.10925 26.0734 8.56202C26.0734 10.199 24.9161 11.3831 23.339 11.3831C21.7619 11.3831 20.6102 10.199 20.6102 8.56202C20.6102 6.92508 21.7675 5.76413 23.339 5.76413H29.9084V3.9008H24.3488V0.354103H22.3292V3.90661H16.6675V5.76993H19.6685C18.9821 6.55358 18.585 7.58102 18.585 8.74197C18.585 11.0348 20.1337 12.7937 22.3746 13.1768V16.5494H13.587V18.4127H33.0796V18.4011C34.2653 18.3546 35.2184 17.3562 35.2184 16.1314V9.45595H39.0193V7.41268H35.2184L35.2241 7.41848ZM24.3488 0.354103V3.90661H29.9084V5.76993H23.339C21.7619 5.76993 20.6102 6.9541 20.6102 8.56782C20.6102 10.1815 21.7675 11.3889 23.339 11.3889C24.9104 11.3889 26.0734 10.2048 26.0734 8.56782C26.0734 8.11505 25.977 7.5578 25.7047 7.13405H27.6732C27.9682 7.58682 28.093 8.1673 28.093 8.74777C28.093 11.0116 26.5896 12.724 24.3998 13.1536V16.5552H31.2586C31.3493 16.5494 31.4458 16.5436 31.5536 16.5436C32.5123 16.5436 32.8754 16.1024 32.9945 15.667V1.10292H35.2241V7.41848H39.025V9.46175H35.2241V16.1372C35.2241 17.362 34.271 18.3604 33.0853 18.4069V18.4185H13.5927V16.5552H22.3802V13.1826C20.1394 12.8053 18.5906 11.0406 18.5906 8.74777C18.5906 7.58682 18.9821 6.55938 19.6742 5.77574H16.6731V3.91241H22.3348V0.354103H24.3545M24.4963 0.208984H22.193V3.76149H16.5313V5.91505H19.3735C18.7722 6.7045 18.4545 7.67389 18.4545 8.74197C18.4545 11.0465 19.9749 12.8575 22.2441 13.2929V16.3984H13.4565V18.552H33.2328V18.5346C34.4412 18.4127 35.3715 17.3852 35.3715 16.1314V9.60107H39.1725V7.26756H35.3715V0.957797H32.8584V15.638C32.7109 16.1372 32.2741 16.3926 31.5593 16.3926C31.4515 16.3926 31.3493 16.3926 31.2529 16.4042H24.5417V13.2697C26.7882 12.7821 28.2348 11.0174 28.2348 8.74197C28.2348 8.08023 28.0817 7.49395 27.7923 7.04698L27.7526 6.98313H25.4494L25.5912 7.20951C25.8124 7.5578 25.9372 8.0512 25.9372 8.56782C25.9372 10.1177 24.848 11.2438 23.3447 11.2438C21.8413 11.2438 20.7577 10.1177 20.7577 8.56782C20.7577 7.01796 21.847 5.91505 23.3447 5.91505H30.0559V3.76149H24.4963V0.208984Z" fill="#1C355E"/>
</g>
<defs>
<clipPath id="clip0_27_46">
<rect width="81" height="33" fill="white"/>
</clipPath>
</defs>
</svg>
