<svg width="409" height="169" viewBox="0 0 409 169" fill="none" xmlns="http://www.w3.org/2000/svg">
<path d="M22.3676 3.04009L21.8877 4.64009C24.1677 4.84009 26.0077 6.12009 26.0077 7.52009V16.5601C21.3277 18.3601 15.8077 19.7601 10.1676 20.4801C9.44765 20.5601 9.12765 20.3201 9.12765 19.5201L9.04765 10.5201L20.8077 10.0401L21.2077 8.12009L16.4477 7.68009C16.0077 8.28009 15.1276 8.72009 14.2477 8.80009C12.3676 9.00009 10.4876 9.08009 8.92765 9.08009L8.76765 8.76009L2.68765 8.16009L2.16765 9.72009C5.16765 9.88009 6.00765 11.0001 6.00765 12.0001L6.12765 19.5601C6.16765 22.9201 7.48765 23.6801 10.8477 22.9201C16.3677 21.6801 21.5677 20.0401 26.0077 18.0001V18.9601C26.0077 20.4001 26.0077 22.1201 26.0877 24.9201H27.8877C28.5277 22.6001 28.8877 19.8401 28.9677 17.2801H36.1277L36.6077 15.0001L32.2477 14.2801C31.7277 15.2801 30.6477 15.7201 29.0076 15.7601V10.3601C29.0076 8.00009 29.1277 5.92009 29.2477 4.36009L22.3676 3.04009ZM13.0477 31.7201C13.0477 35.4001 16.0077 38.2001 20.6477 38.2001C25.2877 38.2001 28.2477 35.4001 28.2477 31.7201C28.2477 28.4001 25.8477 25.8401 21.9676 25.3601C22.1676 24.8801 22.4077 24.4001 22.6477 23.9601L19.2876 22.9201L18.7276 23.8001C19.5676 24.0401 20.0477 24.4801 19.7677 25.3201C15.6077 25.6401 13.0477 28.2801 13.0477 31.7201ZM20.6477 27.2801C23.6877 27.2801 25.4876 29.2001 25.4876 31.7201C25.4876 34.2401 23.6877 36.2001 20.6477 36.2001C17.6077 36.2001 15.8077 34.2401 15.8077 31.7201C15.8077 29.2001 17.6077 27.2801 20.6477 27.2801ZM46.4233 12.3201C46.4233 16.0401 49.4233 18.9201 54.2633 18.9201C59.1033 18.9201 62.1033 16.0401 62.1033 12.3201C62.1033 8.96009 59.6233 6.28009 55.5833 5.80009C55.7833 5.32009 56.0233 4.84009 56.2633 4.40009L52.9033 3.36009L52.3433 4.24009C53.1833 4.48009 53.6633 4.92009 53.3833 5.76009C49.0633 6.08009 46.4233 8.84009 46.4233 12.3201ZM54.2633 7.72009C57.4233 7.72009 59.3433 9.64009 59.3433 12.3201C59.3433 15.0001 57.5433 16.9201 54.2633 16.9201C51.1033 16.9201 49.1833 15.0001 49.1833 12.3201C49.1833 9.64009 51.1033 7.72009 54.2633 7.72009ZM43.5033 22.0001C41.2633 22.0001 39.1433 21.7201 37.3833 21.1201L36.8233 22.4401C39.0233 23.5601 41.2633 24.4001 43.4633 25.0001C44.0633 24.3201 44.8233 23.8801 47.1033 23.7201C50.3433 23.4801 60.5433 23.2401 63.7033 23.2401C66.1433 23.2401 68.4233 23.4001 70.6233 23.6401L71.5433 21.4801L65.6233 20.4001C65.0233 21.0401 64.3033 21.4001 63.4633 21.4401C57.1033 21.8001 50.5033 21.9601 43.5033 22.0001ZM66.5433 34.8401L61.3433 34.3601C60.9033 34.9601 60.0233 35.3201 59.1433 35.4001C56.8233 35.5601 53.5433 35.7201 50.3833 35.6001C49.2233 35.5601 48.9433 35.1601 48.9433 34.2801V31.0801C48.9433 29.8801 49.0233 28.4801 49.0633 27.8001L42.6233 27.0801L42.1033 28.6401C44.3833 28.6801 45.9433 29.6001 45.9433 30.8401V33.5601C45.9433 36.5201 47.3833 37.0801 50.6633 37.0401L66.1033 36.9201L66.5433 34.8401ZM102.97 4.92009L102.53 6.52009C105.13 6.72009 105.81 7.72009 105.81 9.24009V30.1601C105.81 32.3601 105.81 34.2801 105.89 36.4401H107.49C108.21 33.4001 108.45 29.5201 108.45 25.0801V20.1201L111.77 19.9601V32.4801C111.77 34.6801 111.77 36.6801 111.85 38.8401H113.49C114.21 35.8001 114.45 31.9201 114.45 27.4801V10.2801C114.45 7.88009 114.57 5.84009 114.69 4.28009L108.53 3.04009L108.05 4.64009C110.65 4.84009 111.77 5.92009 111.77 7.44009V18.4001L108.45 18.5201V12.0801C108.45 9.64009 108.57 7.64009 108.69 6.08009L102.97 4.92009ZM100.73 28.6401H102.25C102.77 27.6401 103.01 25.8801 103.05 24.5201L103.29 12.0401C103.33 11.0001 103.41 10.0001 103.53 8.96009L99.0898 8.08009L98.6098 9.52009C100.49 9.64009 100.73 10.2401 100.73 11.8801V16.1601L98.0498 16.2401L98.0898 13.0801C98.0898 12.1201 98.1298 11.0401 98.2498 9.80009L94.2898 8.96009L93.8498 10.3601C95.4098 10.5601 95.6098 11.0801 95.6098 12.4801L95.7698 29.4001H97.1698C97.4898 28.7201 97.7698 27.9201 97.8898 26.9201L100.73 26.8001V28.6401ZM90.8898 29.0401H92.4098C92.8498 27.9601 93.1698 26.2801 93.2098 24.9201L93.3298 13.1201C93.3298 12.0801 93.3698 11.0801 93.4898 10.0401L89.3698 9.16009L88.8898 10.6001C90.6498 10.7201 90.8898 11.2801 90.8898 12.8801V16.8001L88.1298 16.8801L88.1698 14.4801C88.1698 13.4401 88.2098 12.3601 88.3298 11.1201L83.7298 10.3601L83.2498 11.8401C85.0098 11.9201 85.4898 12.4801 85.5298 14.0801L85.8498 29.8001H87.2498C87.5698 29.2401 87.8498 28.3601 88.0098 27.3201L90.8898 27.2001V29.0401ZM98.0098 25.0801L98.0498 17.8801L100.73 17.7601V25.2001L98.0098 25.2801V25.0801ZM88.1298 25.4801V18.5201L90.8898 18.4001V25.6001L88.1298 25.6801V25.4801ZM124.585 30.7601C122.345 30.7601 120.225 30.4801 118.465 29.8801L117.905 31.2001C120.105 32.3201 122.345 33.1601 124.545 33.7601C125.145 33.0801 125.905 32.6401 128.185 32.4801C131.425 32.2401 141.625 31.8801 144.785 31.8801C147.225 31.8801 149.505 32.0401 151.705 32.2801L152.625 30.1201L146.705 29.0401C146.105 29.6801 145.385 30.0401 144.545 30.0801C141.465 30.2801 138.345 30.4001 135.145 30.5201L135.185 23.2001C135.185 21.8401 135.265 20.5601 135.385 19.4001L129.585 18.5601L129.065 20.0401C131.025 20.2001 132.265 20.9201 132.265 22.4801V30.6401C129.745 30.7201 127.185 30.7601 124.585 30.7601ZM129.985 10.9601C134.305 10.7201 139.545 10.5201 143.105 10.4001C143.065 14.9601 142.625 21.0401 141.945 25.2001L143.425 25.5201C145.145 20.7201 146.305 14.9601 146.865 8.80009L143.545 8.24009C143.105 8.72009 142.185 9.00009 140.865 9.08009C138.545 9.20009 131.065 9.44009 128.465 9.44009C126.865 9.44009 125.025 9.20009 123.345 8.76009L122.865 9.92009C124.625 10.7601 126.385 11.4801 128.185 12.0001C128.625 11.4001 129.185 11.0001 129.985 10.9601ZM158.441 6.92009C157.041 6.92009 156.601 8.16009 156.681 9.28009L157.041 15.6001C157.201 18.2001 157.561 22.9201 157.681 26.3601L157.761 28.5201H159.121L159.201 26.3601C159.321 22.9201 159.681 18.2001 159.841 15.6001L160.201 9.28009C160.281 8.16009 159.841 6.92009 158.441 6.92009ZM158.441 35.6001C159.681 35.6001 160.761 34.6801 160.761 33.3601C160.761 32.0401 159.681 31.1201 158.441 31.1201C157.201 31.1201 156.121 32.0401 156.121 33.3601C156.121 34.6801 157.201 35.6001 158.441 35.6001ZM195.97 3.04009L195.49 4.64009C197.77 4.84009 199.61 6.12009 199.61 7.52009V20.5201C196.61 21.1201 192.93 21.6801 189.21 22.0801L189.29 19.9601C192.33 19.5201 194.01 17.8001 194.01 15.4401C194.01 12.9201 192.09 11.2001 188.61 10.9201C188.73 10.4801 188.89 10.0401 189.09 9.68009C190.77 9.60009 192.45 9.56009 193.89 9.52009C195.09 9.52009 195.89 9.52009 197.09 9.60009L197.41 7.84009L192.97 6.96009C192.57 7.60009 191.85 8.00009 190.81 8.08009C188.53 8.28009 184.77 8.44009 181.69 8.44009C180.01 8.44009 178.77 8.20009 177.09 7.64009L176.53 8.92009C178.25 9.80009 180.05 10.5201 181.81 11.0001C182.29 10.5201 182.93 10.0401 184.01 9.96009C184.73 9.92009 185.57 9.88009 186.49 9.80009C186.77 10.0401 186.89 10.4001 186.73 10.8801C183.09 11.1201 181.13 12.8801 181.13 15.4401C181.13 17.9201 182.93 19.6801 186.25 20.0401L186.33 22.3601C184.33 22.5601 182.41 22.6801 180.65 22.7201C179.05 22.7601 177.17 22.4401 175.61 21.8801L175.05 23.1201C177.13 24.2401 179.37 25.1201 181.57 25.7201C181.85 25.2801 182.57 24.8001 183.49 24.7201C188.77 24.1601 195.05 23.0001 199.61 21.6801C199.61 22.4401 199.65 23.3601 199.69 24.0401H201.69C202.21 22.7201 202.53 20.4401 202.61 18.7201H209.33L209.81 16.4801L205.57 15.7601C205.09 16.7601 204.29 17.1601 202.61 17.2001V10.5601C202.61 8.20009 202.73 5.92009 202.85 4.36009L195.97 3.04009ZM188.49 32.7201L202.17 32.4001L202.61 30.8401L201.17 30.6001L202.89 25.9601L199.57 25.3201C199.13 25.8001 198.29 26.0401 196.97 26.1201C194.65 26.2801 190.69 26.4001 188.09 26.4001C186.49 26.4001 184.97 26.2401 183.37 25.7201L182.85 26.8801C184.45 27.6801 186.13 28.3201 187.81 28.8001C188.17 28.2401 188.81 27.9601 189.61 27.8801C191.69 27.6801 195.85 27.5201 199.21 27.4401L198.93 30.0401C198.85 30.7601 198.41 31.0401 197.81 31.0801C195.21 31.2401 191.37 31.3201 188.37 31.2801L188.17 30.8401L182.97 30.4001L182.53 31.6801C184.57 31.7601 185.49 32.3201 185.49 33.9201V35.0001C185.49 37.2401 186.37 37.8401 189.41 37.8001L204.57 37.6801L205.01 35.5601L199.81 35.0801C199.37 35.6801 198.49 36.0401 197.61 36.1201C195.29 36.3201 191.65 36.4001 189.69 36.3201C188.73 36.2801 188.49 35.9201 188.49 35.0801V32.7201ZM187.57 12.6801C190.17 12.6801 191.45 13.8001 191.45 15.4401C191.45 17.0801 190.17 18.2401 187.57 18.2401C184.97 18.2401 183.69 17.0801 183.69 15.4401C183.69 13.8001 184.97 12.6801 187.57 12.6801ZM191.97 3.96009C190.25 4.08009 188.41 4.16009 187.17 4.12009C185.25 4.08009 183.57 3.96009 181.89 3.60009L181.45 4.76009C183.05 5.64009 184.45 6.24009 186.25 6.80009C186.65 6.40009 187.17 6.20009 188.09 6.12009C188.85 6.04009 190.25 6.00009 191.61 6.04009L191.97 3.96009ZM218.985 16.3201L228.985 15.9601L229.425 14.4001L228.065 14.1601L229.745 7.48009L226.505 6.84009C226.065 7.32009 225.225 7.52009 223.905 7.64009C222.425 7.76009 220.425 7.88009 218.905 7.84009C217.305 7.80009 215.785 7.64009 214.185 7.16009L213.665 8.32009C215.265 9.12009 216.945 9.84009 218.625 10.3201C218.985 9.76009 219.625 9.48009 220.425 9.40009C221.945 9.24009 224.145 9.08009 226.145 9.04009L225.825 13.6001C225.785 14.2801 225.305 14.5601 224.705 14.6401C222.945 14.8401 220.665 14.9201 218.865 14.8801L218.665 14.4401L213.465 14.0001L213.025 15.2801C215.065 15.3601 215.985 15.9201 215.985 17.5201L216.025 22.1201C216.065 24.8401 217.665 25.7201 219.905 25.0001C223.145 23.9601 226.385 22.4001 229.225 20.6801C230.425 21.2401 231.705 21.6401 232.945 21.9601C233.265 21.6001 233.665 21.3201 234.745 21.1601C235.345 21.0801 236.545 20.9601 237.225 21.0001C237.225 22.3201 237.225 23.8001 237.305 25.0801H239.305C239.865 22.7601 240.225 19.7601 240.225 17.3201V10.3601C240.225 8.00009 240.345 5.92009 240.465 4.36009L233.585 3.04009L233.105 4.64009C235.385 4.84009 237.225 6.12009 237.225 7.52009V11.3201C236.225 11.4801 234.905 11.6001 233.905 11.6001C232.505 11.6401 230.985 11.6001 229.825 11.3601L229.505 12.4401C230.825 13.0401 232.225 13.5201 233.545 13.8801C233.865 13.5201 234.265 13.2401 235.345 13.0801C235.785 13.0001 236.545 12.9601 237.225 12.9201V19.3201C236.265 19.5201 234.545 19.6801 233.305 19.7201C232.465 19.7601 231.585 19.7601 230.745 19.6801C231.265 19.3601 231.745 19.0401 232.225 18.6801L231.545 17.6401C228.225 19.6801 223.905 21.5601 220.025 22.4801C219.345 22.6401 218.985 22.4401 218.985 21.6801V16.3201ZM237.025 28.7201V34.4801C237.025 35.8801 237.025 37.4801 237.105 38.8401H239.025C239.585 36.5201 239.785 34.3201 239.865 32.2801L239.985 29.8401C240.025 28.8801 240.105 28.1201 240.225 27.2001L237.105 26.5201C236.385 27.1201 235.505 27.2801 234.625 27.3601C232.305 27.5201 227.145 27.6401 224.545 27.6001C222.945 27.5601 221.385 27.4401 219.785 26.9201L219.305 28.0801C220.905 28.8801 222.585 29.6001 224.265 30.0801C224.625 29.5201 225.265 29.1601 226.065 29.1201C229.185 28.9201 233.425 28.7601 237.025 28.7201ZM254.921 12.3201C254.921 16.0401 257.921 18.9201 262.761 18.9201C267.601 18.9201 270.601 16.0401 270.601 12.3201C270.601 8.96009 268.121 6.28009 264.081 5.80009C264.281 5.32009 264.521 4.84009 264.761 4.40009L261.401 3.36009L260.841 4.24009C261.681 4.48009 262.161 4.92009 261.881 5.76009C257.561 6.08009 254.921 8.84009 254.921 12.3201ZM262.761 7.72009C265.921 7.72009 267.841 9.64009 267.841 12.3201C267.841 15.0001 266.041 16.9201 262.761 16.9201C259.601 16.9201 257.681 15.0001 257.681 12.3201C257.681 9.64009 259.601 7.72009 262.761 7.72009ZM252.001 22.0001C249.761 22.0001 247.641 21.7201 245.881 21.1201L245.321 22.4401C247.521 23.5601 249.761 24.4001 251.961 25.0001C252.561 24.3201 253.321 23.8801 255.601 23.7201C258.841 23.4801 269.041 23.2401 272.201 23.2401C274.641 23.2401 276.921 23.4001 279.121 23.6401L280.041 21.4801L274.121 20.4001C273.521 21.0401 272.801 21.4001 271.961 21.4401C265.601 21.8001 259.001 21.9601 252.001 22.0001ZM275.041 34.8401L269.841 34.3601C269.401 34.9601 268.521 35.3201 267.641 35.4001C265.321 35.5601 262.041 35.7201 258.881 35.6001C257.721 35.5601 257.441 35.1601 257.441 34.2801V31.0801C257.441 29.8801 257.521 28.4801 257.561 27.8001L251.121 27.0801L250.601 28.6401C252.881 28.6801 254.441 29.6001 254.441 30.8401V33.5601C254.441 36.5201 255.881 37.0801 259.161 37.0401L274.601 36.9201L275.041 34.8401ZM314.468 3.04009L313.988 4.64009C316.268 4.84009 318.108 6.12009 318.108 7.52009V17.2401C316.708 17.4001 314.268 17.5201 312.468 17.5601C311.068 17.6001 309.428 17.5601 307.908 17.2401L307.588 18.3201C308.828 18.9201 310.668 19.6001 312.068 19.9201C312.388 19.5601 312.788 19.2401 313.868 19.0801C314.468 19.0001 316.668 18.9201 318.108 18.9601V32.4801C318.108 34.6801 318.108 36.6801 318.188 38.8401H319.988C320.748 35.8001 321.108 31.9201 321.108 27.4801V10.3601C321.108 8.00009 321.228 5.92009 321.348 4.36009L314.468 3.04009ZM299.588 11.1601L293.508 10.5601L292.988 12.1201C295.988 12.2801 296.828 13.4001 296.828 14.4001L296.948 26.1201C296.988 28.9201 298.188 29.8001 301.268 29.3201C305.068 28.7201 310.508 27.1201 314.348 25.4001L313.908 24.2001C309.828 25.5601 305.108 26.5601 300.988 26.8401C300.268 26.8801 299.948 26.6001 299.948 25.8001L299.868 12.9201L311.388 12.5601L311.788 10.5601L306.748 10.0801C306.308 10.6801 305.468 11.1601 304.588 11.2401C302.708 11.4401 301.308 11.4801 299.748 11.4801L299.588 11.1601ZM330.763 24.2801C330.763 28.0401 333.683 30.7601 338.243 30.7601C342.803 30.7601 345.723 28.0401 345.723 24.2801C345.723 20.9201 343.363 18.3601 339.563 17.8801C339.723 17.4401 339.923 17.0801 340.243 16.6801L336.883 15.4401L336.323 16.3201C337.163 16.5601 337.643 17.0001 337.363 17.8401C333.283 18.1601 330.763 20.7601 330.763 24.2801ZM347.043 3.04009L346.563 4.64009C348.843 4.84009 350.683 6.12009 350.683 7.52009V32.3601C350.683 34.5601 350.683 36.6801 350.763 38.8401H352.563C353.323 35.8001 353.683 31.9201 353.683 27.4801V22.2401H361.003L361.483 19.9601L357.123 19.2401C356.603 20.2801 355.443 20.7201 353.683 20.7201V10.3601C353.683 8.00009 353.803 5.92009 353.923 4.36009L347.043 3.04009ZM338.243 20.0001C341.043 20.0001 342.963 21.6801 342.963 24.2801C342.963 26.8801 341.043 28.6001 338.243 28.6001C335.443 28.6001 333.523 26.8801 333.523 24.2801C333.523 21.6801 335.443 20.0001 338.243 20.0001ZM349.003 12.9601L344.163 12.0801C343.763 12.7201 343.043 13.1201 342.003 13.2001C339.323 13.4001 334.683 13.5601 331.603 13.5601C329.923 13.5601 328.483 13.2801 326.803 12.7601L326.243 14.0401C328.003 14.9201 329.883 15.6401 331.723 16.1201C332.083 15.6001 332.843 15.1601 333.923 15.0801C337.283 14.8001 341.643 14.6801 345.083 14.6401C346.283 14.6401 347.483 14.6801 348.683 14.7201L349.003 12.9601ZM343.043 8.20009C341.243 8.36009 339.203 8.40009 337.563 8.36009C335.443 8.32009 333.763 8.20009 332.043 7.84009L331.603 9.00009C333.323 9.88009 334.883 10.5201 336.643 11.0401C337.043 10.6401 337.563 10.4401 338.483 10.3601C339.843 10.2401 341.323 10.2401 342.683 10.2801L343.043 8.20009ZM368.379 30.7601C366.139 30.7601 364.019 30.4801 362.259 29.8801L361.699 31.2001C363.899 32.3201 366.139 33.1601 368.339 33.7601C368.939 33.0801 369.699 32.6401 371.979 32.4801C375.219 32.2401 385.419 31.8801 388.579 31.8801C391.019 31.8801 393.299 32.0401 395.499 32.2801L396.419 30.1201L390.499 29.0401C389.899 29.6801 389.179 30.0401 388.339 30.0801C385.259 30.2801 382.139 30.4001 378.939 30.5201L378.979 23.2001C378.979 21.8401 379.059 20.5601 379.179 19.4001L373.379 18.5601L372.859 20.0401C374.819 20.2001 376.059 20.9201 376.059 22.4801V30.6401C373.539 30.7201 370.979 30.7601 368.379 30.7601ZM373.779 10.9601C378.099 10.7201 383.339 10.5201 386.899 10.4001C386.859 14.9601 386.419 21.0401 385.739 25.2001L387.219 25.5201C388.939 20.7201 390.099 14.9601 390.659 8.80009L387.339 8.24009C386.899 8.72009 385.979 9.00009 384.659 9.08009C382.339 9.20009 374.859 9.44009 372.259 9.44009C370.659 9.44009 368.819 9.20009 367.139 8.76009L366.659 9.92009C368.419 10.7601 370.179 11.4801 371.979 12.0001C372.419 11.4001 372.979 11.0001 373.779 10.9601ZM402.235 6.92009C400.835 6.92009 400.395 8.16009 400.475 9.28009L400.835 15.6001C400.995 18.2001 401.355 22.9201 401.475 26.3601L401.555 28.5201H402.915L402.995 26.3601C403.115 22.9201 403.475 18.2001 403.635 15.6001L403.995 9.28009C404.075 8.16009 403.635 6.92009 402.235 6.92009ZM402.235 35.6001C403.475 35.6001 404.555 34.6801 404.555 33.3601C404.555 32.0401 403.475 31.1201 402.235 31.1201C400.995 31.1201 399.915 32.0401 399.915 33.3601C399.915 34.6801 400.995 35.6001 402.235 35.6001Z" fill="#7B2429"/>
<path d="M94.8432 79.1501C94.8432 79.0001 94.7932 78.9001 94.6432 78.9001C93.7932 78.9001 94.4932 81.5501 92.2932 83.0501C91.1932 83.8501 90.6932 83.9501 86.5432 83.9501C84.7432 83.9501 82.9432 83.9001 81.0932 83.9001C80.0932 83.9001 79.1432 83.8001 79.1432 82.9001C79.1432 82.7001 79.1432 82.4001 79.3432 82.2501L93.5932 64.3001C93.9432 63.9001 94.3432 63.5501 94.3432 63.3001C94.3432 62.8501 93.5932 62.9501 93.1932 62.9501C92.4932 62.9501 78.3432 63.3501 77.8932 63.3501C77.1932 63.3501 77.0432 62.9501 77.0432 62.4501C77.0432 61.7501 77.0932 61.6001 76.8432 61.6001C76.5932 61.6001 76.5432 61.8501 76.4432 62.1001L74.6432 67.0501C74.6432 67.2001 74.6432 67.3001 74.6432 67.5001C74.6432 67.7001 74.6932 67.8001 74.8432 67.8001C75.6432 67.8001 75.9432 64.3501 80.1932 64.1001C83.2432 63.9001 87.4432 63.7501 89.1932 63.7501C89.6432 63.7501 90.1432 63.8501 90.1432 64.2001C90.1432 64.3001 89.8432 64.6501 89.6432 64.9501L74.1932 84.3001C74.1432 84.3501 74.1432 84.4501 74.1432 84.5501C74.1432 84.8001 74.2932 85.0001 74.6932 85.0001C76.7432 85.0001 85.8432 84.6501 88.1432 84.6501C90.0432 84.6501 92.1932 84.8001 93.7432 84.8001C94.1432 84.8001 94.6932 84.8001 94.6932 84.3501L94.7932 80.7001C94.7932 80.3001 94.8432 79.7001 94.8432 79.1501ZM112.815 79.7001C112.815 79.6001 112.765 79.5501 112.565 79.5501C111.915 79.5501 112.065 80.4501 110.465 82.3001C109.665 83.2001 108.865 83.7001 106.165 83.7001C101.665 83.7001 101.565 83.4001 101.565 81.6001V74.5501C101.565 73.8001 101.765 73.5001 103.815 73.5001C108.515 73.5001 108.865 73.8001 109.165 75.7501C109.315 76.6501 109.265 77.2001 109.765 77.2001C110.015 77.2001 109.965 76.9501 109.965 76.7501C109.965 75.8001 109.865 74.8001 109.865 73.2501C109.865 71.4501 109.965 71.0001 109.965 70.1501C109.965 69.9001 109.965 69.6501 109.665 69.6501C108.765 69.6501 109.565 72.7501 106.765 72.7501H103.665C102.265 72.7501 101.565 72.5501 101.565 71.7001V65.4001C101.565 64.0501 101.815 63.6001 103.415 63.6001C109.765 63.6001 109.865 64.2001 110.465 65.5001C110.965 66.6001 110.915 67.0001 111.315 67.0001C111.365 67.0001 111.415 67.0001 111.415 66.9501V63.5501C111.415 62.9001 111.465 62.4501 111.065 62.4501C107.965 62.4501 102.815 62.6001 101.615 62.6001C100.715 62.6001 97.7646 62.4501 96.3146 62.4501C95.8646 62.4501 95.4646 62.4501 95.4646 62.7501C95.4646 63.2001 95.9146 63.2001 96.8646 63.4001C98.4646 63.7001 98.8646 63.9001 98.8646 64.9001V82.0501C98.8646 83.7501 97.7646 83.6001 96.6146 83.9001C95.8146 84.1501 95.2146 84.0001 95.2146 84.4501C95.2146 84.8001 95.6646 84.7501 95.8646 84.7501C96.2146 84.7501 96.5646 84.6001 100.715 84.6001H111.215C111.565 84.6001 111.765 84.4501 111.865 83.9501L112.665 80.2001C112.715 80.0001 112.815 79.8501 112.815 79.7001ZM136.733 84.4001C136.733 84.0501 135.883 84.1501 135.033 83.9001C133.183 83.3501 132.433 82.5001 131.783 81.4001L127.433 74.3501C127.233 74.0501 127.133 73.9001 127.133 73.6501C127.133 73.1001 131.033 71.6501 131.033 67.9501C131.033 63.6501 127.483 62.4501 124.483 62.4501C122.833 62.4501 121.233 62.6001 119.433 62.6001C118.383 62.6001 115.483 62.4501 115.183 62.4501C114.933 62.4501 114.583 62.5001 114.583 62.9501C114.583 63.4001 115.383 63.3501 115.633 63.4001C117.233 63.5001 118.133 63.8001 118.133 64.5501V82.0001C118.133 83.4501 117.183 83.8001 116.233 83.9001C115.283 84.0501 114.483 83.9001 114.483 84.4501C114.483 84.7001 114.783 84.7501 114.933 84.7501C116.733 84.7501 118.383 84.6001 119.983 84.6001C121.483 84.6001 122.783 84.7501 124.083 84.7501C124.183 84.7501 124.933 84.7501 124.933 84.4501C124.933 84.0001 124.133 84.0501 123.583 83.9001C120.933 83.3001 120.983 82.9501 120.983 81.0501V74.7501C120.983 74.0001 120.933 73.6501 122.233 73.6501C123.183 73.6501 124.283 74.1001 124.633 74.7501L129.983 84.2501C130.133 84.5501 130.283 84.5501 133.183 84.5501C134.333 84.5501 134.933 84.5501 136.483 84.5501C136.633 84.5501 136.733 84.5001 136.733 84.4001ZM128.283 67.9501C128.283 72.6001 125.233 72.9501 123.133 72.9501C121.283 72.9501 120.983 72.7001 120.983 72.2501V64.5501C120.983 63.3501 121.983 63.3501 122.333 63.3501C125.333 63.3501 128.283 64.2001 128.283 67.9501ZM161.104 73.5001C161.104 68.6001 157.404 62.0001 149.004 62.0001C142.054 62.0001 137.004 67.0501 137.004 73.6501C137.004 80.5001 142.054 85.3001 148.754 85.3001C157.554 85.3001 161.104 78.7001 161.104 73.5001ZM157.504 72.9001C157.504 74.8501 157.154 84.5501 149.004 84.5501C145.954 84.5501 140.554 82.1501 140.554 73.7501C140.554 65.8001 144.904 62.8001 148.754 62.8001C154.804 62.8001 157.504 68.2001 157.504 72.9001ZM184.54 78.6501C184.54 71.0001 173.44 71.7501 173.44 66.4501C173.44 64.5501 174.54 63.0001 177.64 63.0001C182.64 63.0001 181.29 67.5001 182.64 67.5001C182.79 67.5001 182.84 67.4001 182.84 67.3001V64.3501C182.84 63.1001 182.79 62.6501 180.04 62.1001C179.34 61.9501 178.69 62.0001 178.14 62.0001C173.54 62.0001 171.24 65.0501 171.24 67.9501C171.24 75.0501 182.29 74.7001 182.29 80.2001C182.29 82.0501 180.94 84.4001 177.19 84.4001C174.09 84.4001 172.84 82.1001 172.49 81.5001C171.29 79.5501 172.24 78.5501 171.24 78.5501C170.59 78.5501 170.64 80.5501 170.64 81.5001C170.64 83.6501 170.99 84.2501 173.24 84.7501C174.44 85.0001 176.04 85.3001 176.69 85.3001C181.09 85.3001 184.54 83.2001 184.54 78.6501ZM209.456 62.9501C209.456 62.7001 209.306 62.5001 208.956 62.5001C207.956 62.5001 206.706 62.6501 205.706 62.6501C204.706 62.6501 203.656 62.5001 202.606 62.5001C202.206 62.5001 201.956 62.6001 201.956 62.8501C201.956 63.4501 202.556 63.3001 203.106 63.4001C204.556 63.6501 205.056 63.7001 205.056 65.5501V76.1001C205.056 81.9001 203.056 84.4001 197.906 84.4001C193.506 84.4001 191.406 81.6001 191.406 77.0001C191.406 75.0001 191.406 66.1001 191.406 64.5001C191.406 63.8001 192.656 63.4001 193.406 63.4001C194.356 63.3501 194.806 63.4501 194.806 62.9001C194.806 62.5501 194.206 62.5001 194.056 62.5001C192.356 62.5001 191.506 62.6501 189.956 62.6501C188.406 62.6501 187.306 62.5001 185.656 62.5001C185.206 62.5001 185.056 62.6501 185.056 63.1001C185.056 63.4501 185.806 63.3501 187.006 63.4001C188.406 63.4501 188.656 64.1001 188.656 66.0501C188.656 69.3001 188.656 72.0501 188.656 76.3501C188.656 81.7001 190.306 85.3001 196.456 85.3001C204.506 85.3001 206.106 82.0501 206.106 76.2001V65.5501C206.106 63.7001 206.906 63.6001 208.456 63.4001C209.006 63.3001 209.456 63.4501 209.456 62.9501ZM234.833 74.5501C234.833 74.2501 234.433 74.3501 233.833 74.3501C232.783 74.3501 231.083 74.4001 229.583 74.4001C228.033 74.4001 226.483 74.3501 224.983 74.3501C224.533 74.3501 223.933 74.2501 223.933 74.8501C223.933 75.2501 224.233 75.2001 226.133 75.2001C228.533 75.2001 228.633 75.6001 228.633 77.9001V80.1001C228.633 83.6501 227.333 83.8001 226.033 84.1501C225.183 84.4001 223.983 84.5501 223.133 84.5501C218.933 84.5501 213.633 80.8001 213.633 73.9001C213.633 63.5001 220.883 62.8001 223.583 62.8001C229.183 62.8001 229.683 67.3501 230.433 67.3501C230.633 67.3501 230.733 67.4001 230.733 67.2501C230.733 63.9001 230.683 63.3501 229.383 62.9501C227.433 62.3001 225.783 62.0001 223.383 62.0001C215.733 62.0001 210.083 66.5501 210.083 74.2001C210.083 81.5501 216.083 85.3001 222.633 85.3001C226.233 85.3001 228.683 84.6001 230.583 83.6001C231.183 83.3001 231.283 82.6001 231.283 82.2001V76.4001C231.283 75.0501 232.383 75.0501 233.283 75.0501C234.133 75.0501 234.833 75.1501 234.833 74.5501ZM257.409 84.4501C257.409 84.0001 256.559 84.2001 255.709 83.9001C255.209 83.8001 254.459 83.2001 253.759 81.1001L247.009 61.6501C246.959 61.5501 246.859 61.5501 246.609 61.5501C246.509 61.5501 246.409 61.5501 246.359 61.6501L237.159 82.8001C236.959 83.2001 236.809 83.6501 235.859 83.9001C235.009 84.2501 234.159 84.0501 234.159 84.4501C234.159 84.7001 234.209 84.8001 234.409 84.8001C235.609 84.8001 237.159 84.6001 238.459 84.6001C239.559 84.6001 240.659 84.8001 241.759 84.8001C242.009 84.8001 242.459 84.8501 242.459 84.4501C242.459 84.2001 241.709 84.2001 240.559 83.9001C240.309 83.8501 239.459 83.4001 239.459 82.5501C239.459 82.2001 241.109 77.0501 242.159 75.3001C242.309 75.0001 242.859 74.8001 245.409 74.8501C248.659 74.9501 248.809 74.9501 249.059 75.8501L250.759 81.8001C250.859 82.0501 251.059 82.4501 251.059 82.7001C251.059 83.4501 250.209 83.9001 249.959 83.9001C248.809 84.1501 248.159 84.1501 248.159 84.5001C248.159 84.6001 248.259 84.8001 248.459 84.8001C249.859 84.8001 251.109 84.6001 252.559 84.6001C253.959 84.6001 255.159 84.8001 256.709 84.8001C257.109 84.8001 257.409 84.7501 257.409 84.4501ZM248.209 73.1501C248.209 73.4001 245.609 73.6001 245.409 73.6001C245.059 73.6001 242.659 73.4001 242.659 73.2001C242.659 72.9501 242.809 72.6001 242.859 72.4001L245.209 66.5501C245.259 66.3001 245.459 66.2501 245.609 66.2501C245.809 66.2501 245.859 66.4001 245.909 66.5001L247.959 72.3501C248.059 72.6501 248.209 72.9501 248.209 73.1501ZM280.18 84.4001C280.18 84.0501 279.33 84.1501 278.48 83.9001C276.63 83.3501 275.88 82.5001 275.23 81.4001L270.88 74.3501C270.68 74.0501 270.58 73.9001 270.58 73.6501C270.58 73.1001 274.48 71.6501 274.48 67.9501C274.48 63.6501 270.93 62.4501 267.93 62.4501C266.28 62.4501 264.68 62.6001 262.88 62.6001C261.83 62.6001 258.93 62.4501 258.63 62.4501C258.38 62.4501 258.03 62.5001 258.03 62.9501C258.03 63.4001 258.83 63.3501 259.08 63.4001C260.68 63.5001 261.58 63.8001 261.58 64.5501V82.0001C261.58 83.4501 260.63 83.8001 259.68 83.9001C258.73 84.0501 257.93 83.9001 257.93 84.4501C257.93 84.7001 258.23 84.7501 258.38 84.7501C260.18 84.7501 261.83 84.6001 263.43 84.6001C264.93 84.6001 266.23 84.7501 267.53 84.7501C267.63 84.7501 268.38 84.7501 268.38 84.4501C268.38 84.0001 267.58 84.0501 267.03 83.9001C264.38 83.3001 264.43 82.9501 264.43 81.0501V74.7501C264.43 74.0001 264.38 73.6501 265.68 73.6501C266.63 73.6501 267.73 74.1001 268.08 74.7501L273.43 84.2501C273.58 84.5501 273.73 84.5501 276.63 84.5501C277.78 84.5501 278.38 84.5501 279.93 84.5501C280.08 84.5501 280.18 84.5001 280.18 84.4001ZM271.73 67.9501C271.73 72.6001 268.68 72.9501 266.58 72.9501C264.73 72.9501 264.43 72.7001 264.43 72.2501V64.5501C264.43 63.3501 265.43 63.3501 265.78 63.3501C268.78 63.3501 271.73 64.2001 271.73 67.9501ZM304.861 74.1001C304.861 67.5001 301.661 62.9501 297.311 62.9501C293.611 62.9501 289.711 66.5501 289.711 74.1001C289.711 81.1001 292.961 85.3001 297.311 85.3001C300.961 85.3001 304.861 81.1001 304.861 74.1001ZM302.011 74.1001C302.011 78.8501 300.511 84.4001 297.311 84.4001C293.961 84.4001 292.661 78.8501 292.661 74.1001C292.661 69.2501 293.961 63.8001 297.311 63.8001C300.511 63.8001 302.011 69.2501 302.011 74.1001ZM329.528 62.0001C329.078 62.5001 327.978 63.7001 327.078 64.2501C326.078 64.9001 324.428 66.1501 321.478 66.1501C320.128 66.1501 319.578 65.8001 318.728 65.4501C318.528 64.3501 317.528 63.6501 316.728 63.3001C316.378 63.1501 315.878 63.1501 315.378 63.1501C312.128 63.1501 307.578 67.0501 307.578 71.5501C307.578 74.6501 309.628 75.7001 311.328 75.7001C314.978 75.7001 318.378 71.0501 318.628 67.7501C318.678 67.2001 318.728 66.5001 318.728 66.0001C319.878 66.3501 320.578 66.6501 321.678 66.6501C322.528 66.6501 324.178 66.3501 326.028 65.2501L326.378 65.6001L309.878 86.4001H311.028L330.228 62.0001H329.528ZM332.178 76.2001C332.178 74.6501 331.278 72.6501 328.728 72.6501C325.028 72.6501 321.078 77.5501 321.078 80.8001C321.078 83.3001 322.178 85.2501 324.978 85.2501C329.378 85.2501 332.178 79.2001 332.178 76.2001ZM318.228 66.3001C318.228 71.1001 314.378 75.2501 311.378 75.2501C310.028 75.2501 308.978 74.6501 308.978 72.4501C308.978 70.0501 311.928 65.2001 314.128 64.0501C314.678 63.8001 315.328 63.6501 315.928 63.6501C316.178 64.3501 317.628 65.3001 318.078 65.7001C318.078 65.8501 318.228 66.1501 318.228 66.3001ZM331.728 76.1001C331.728 78.8001 329.078 84.8001 325.028 84.8001C323.328 84.8001 322.328 83.9001 322.328 82.0501C322.328 79.6001 326.228 73.3001 329.228 73.3001C330.978 73.3001 331.728 74.7501 331.728 76.1001Z" fill="#E11E29"/>
<path d="M59.1971 134.5V133.465H55.3871V134.5H59.1971ZM57.2621 137.29C58.3871 137.29 59.1521 137.59 59.1521 138.16C59.1521 138.76 58.3871 139.015 57.2621 139.015C56.1821 139.015 55.4021 138.76 55.4021 138.16C55.4021 137.59 56.1671 137.29 57.2621 137.29ZM61.2971 136.06V135.055H53.2421V136.06H61.2971ZM66.0221 138.49V137.395H63.8921V133.33H62.6471V141.685H63.8921V138.49H66.0221ZM60.3821 138.175C60.3821 137.05 59.0771 136.345 57.2621 136.345C55.5071 136.345 54.1721 137.05 54.1721 138.175C54.1721 139.18 55.1771 139.855 56.6771 139.99V140.65C55.3271 140.695 53.8721 140.71 52.8671 140.71L53.0471 141.775C54.1421 141.775 55.7921 141.745 57.2621 141.655C58.8371 141.58 60.7271 141.415 61.8371 141.28L61.7321 140.305C60.8321 140.425 59.3471 140.53 57.9371 140.605V139.975C59.4371 139.825 60.3821 139.165 60.3821 138.175ZM64.3721 147.4V146.38H56.4821V145.345H63.8921V142.465H55.1921V143.47H62.6471V144.385H55.2221V147.4H64.3721ZM67.5209 134.59V135.67H72.5759C72.3209 138.685 70.2509 141.325 66.8459 142.84L67.6109 143.86C71.2109 142.12 73.8809 139.09 73.9559 134.59H67.5209ZM76.8209 146.725H78.0809V133.33H76.8209V146.725ZM82.0247 134.95H86.0297V133.885H82.0247V134.95ZM91.3847 146.935V145.87H83.7797V142.69H82.5197V146.935H91.3847ZM93.1097 138.61V137.53H90.9047V133.33H89.6447V143.365H90.9047V138.61H93.1097ZM80.3597 137.26H83.3747V137.335C83.3747 139.24 81.7697 140.725 79.9247 141.28L80.5847 142.27C82.1747 141.715 83.5847 140.425 84.0497 139.21C84.6047 140.425 86.0897 141.55 87.4247 141.94L88.0397 140.95C86.3447 140.5 84.6947 139.195 84.6947 137.335V137.26H87.6947V136.21H80.3597V137.26ZM104.528 139.9C103.163 139.21 101.678 137.785 101.678 135.535V134.155H100.433V135.58C100.433 137.8 99.1126 139.45 97.5226 140.32L98.3176 141.235C99.6226 140.485 100.718 139.15 101.078 137.965C101.468 139.045 102.728 140.305 103.793 140.845L104.528 139.9ZM108.143 144.685C108.143 145.675 106.958 146.35 105.083 146.35C103.238 146.35 102.038 145.675 102.038 144.685C102.038 143.695 103.238 142.99 105.083 142.99C106.958 142.99 108.143 143.68 108.143 144.685ZM109.433 141.88V133.33H108.188V136.855H106.448V133.555H105.203V141.19H106.448V137.92H108.188V141.88H109.433ZM109.463 144.685C109.463 143.035 107.798 141.91 105.083 141.91C102.398 141.91 100.718 143.035 100.718 144.685C100.718 146.32 102.398 147.43 105.083 147.43C107.798 147.43 109.463 146.32 109.463 144.685ZM117.246 134.5V133.465H113.436V134.5H117.246ZM115.311 137.29C116.436 137.29 117.201 137.59 117.201 138.16C117.201 138.76 116.436 139.015 115.311 139.015C114.231 139.015 113.451 138.76 113.451 138.16C113.451 137.59 114.216 137.29 115.311 137.29ZM119.346 136.06V135.055H111.291V136.06H119.346ZM124.071 138.49V137.395H121.941V133.33H120.696V141.685H121.941V138.49H124.071ZM118.431 138.175C118.431 137.05 117.126 136.345 115.311 136.345C113.556 136.345 112.221 137.05 112.221 138.175C112.221 139.18 113.226 139.855 114.726 139.99V140.65C113.376 140.695 111.921 140.71 110.916 140.71L111.096 141.775C112.191 141.775 113.841 141.745 115.311 141.655C116.886 141.58 118.776 141.415 119.886 141.28L119.781 140.305C118.881 140.425 117.396 140.53 115.986 140.605V139.975C117.486 139.825 118.431 139.165 118.431 138.175ZM122.421 147.4V146.38H114.531V145.345H121.941V142.465H113.241V143.47H120.696V144.385H113.271V147.4H122.421ZM135.785 141.625V140.545H127.73V138.37H135.455V134.17H126.455V135.235H134.21V137.305H126.47V141.625H130.31V143.98H124.655V145.06H137.255V143.98H131.585V141.625H135.785ZM154.718 140.665V139.6H142.103V140.665H154.718ZM153.173 134.905V133.855H143.618V134.905H147.698C147.413 136.555 145.268 137.5 143.108 137.755L143.633 138.745C145.868 138.43 147.803 137.425 148.418 136.15C149.138 137.41 151.043 138.4 153.218 138.745L153.758 137.74C151.748 137.5 149.468 136.54 149.138 134.905H153.173ZM153.338 147.325V146.245H145.148V145.015H152.873V141.805H143.873V142.87H151.628V143.995H143.903V147.325H153.338ZM156.412 134.59V135.67H161.362C161.077 138.655 159.112 141.325 155.737 142.855L156.487 143.875C160.057 142.105 162.667 138.97 162.727 134.59H156.412ZM167.197 146.725V133.33H165.937V138.415H162.517V139.495H165.937V146.725H167.197ZM178.731 146.215H172.221V143.665H178.731V146.215ZM178.596 136.27C178.596 137.365 177.351 138.01 175.476 138.01C173.586 138.01 172.356 137.365 172.356 136.27C172.356 135.205 173.586 134.56 175.476 134.56C177.351 134.56 178.596 135.205 178.596 136.27ZM179.901 136.27C179.901 134.62 178.206 133.525 175.476 133.525C172.761 133.525 171.036 134.62 171.036 136.27C171.036 137.965 172.776 139.03 175.476 139.03C178.176 139.03 179.901 137.965 179.901 136.27ZM179.976 147.28V142.6H176.106V141.025H181.776V139.96H169.176V141.025H174.831V142.6H170.976V147.28H179.976ZM183.2 138.79C183.2 141.46 184.565 143.275 186.755 143.275C188.945 143.275 190.325 141.46 190.325 138.805C190.325 136.12 188.945 134.305 186.755 134.305C184.565 134.305 183.2 136.12 183.2 138.79ZM184.46 138.79C184.46 136.78 185.405 135.43 186.755 135.43C188.135 135.43 189.08 136.78 189.08 138.79C189.08 140.815 188.135 142.165 186.755 142.165C185.405 142.165 184.46 140.815 184.46 138.79ZM192.935 146.725H194.195V133.33H192.935V146.725ZM208.343 138.7C206.558 139.09 204.278 139.27 202.208 139.27V134.065H200.948V140.395C203.738 140.41 206.543 140.2 208.493 139.795L208.343 138.7ZM211.718 141.13V133.33H210.473V135.85H206.213V136.915H210.473V141.13H211.718ZM210.473 146.14H204.398V143.035H210.473V146.14ZM211.733 147.205V141.985H203.153V147.205H211.733ZM220.146 135.1V134.02H215.991V135.1H220.146ZM223.941 146.725H225.186V133.33H223.941V146.725ZM222.261 142.93C220.536 142.24 218.736 140.425 218.736 138.04V137.635H221.886V136.555H214.311V137.635H217.431V138.07C217.431 140.5 215.736 142.405 213.876 143.245L214.656 144.175C216.171 143.425 217.686 141.85 218.106 140.395C218.601 141.79 220.101 143.26 221.571 143.92L222.261 142.93ZM239.825 141.49V140.41H227.225V141.49H239.825ZM229.13 133.675V138.535H238.145V137.47H230.375V133.675H229.13ZM229.085 142.84V147.01H238.16V145.945H230.33V142.84H229.085ZM245.108 137.605C245.108 139.57 246.668 140.965 248.738 140.965C250.793 140.965 252.368 139.555 252.368 137.59C252.368 135.625 250.793 134.245 248.738 134.245C246.668 134.245 245.108 135.625 245.108 137.605ZM246.383 137.59C246.383 136.285 247.373 135.34 248.738 135.34C250.133 135.34 251.078 136.3 251.078 137.605C251.078 138.895 250.133 139.87 248.738 139.87C247.373 139.87 246.383 138.88 246.383 137.59ZM256.538 146.92V145.84H248.753V142.405H247.478V146.92H256.538ZM256.208 143.35V133.33H254.963V143.35H256.208ZM265.147 139.9C263.782 139.21 262.297 137.785 262.297 135.535V134.155H261.052V135.58C261.052 137.8 259.732 139.45 258.142 140.32L258.937 141.235C260.242 140.485 261.337 139.15 261.697 137.965C262.087 139.045 263.347 140.305 264.412 140.845L265.147 139.9ZM268.762 144.685C268.762 145.675 267.577 146.35 265.702 146.35C263.857 146.35 262.657 145.675 262.657 144.685C262.657 143.695 263.857 142.99 265.702 142.99C267.577 142.99 268.762 143.68 268.762 144.685ZM270.052 141.88V133.33H268.807V136.855H267.067V133.555H265.822V141.19H267.067V137.92H268.807V141.88H270.052ZM270.082 144.685C270.082 143.035 268.417 141.91 265.702 141.91C263.017 141.91 261.337 143.035 261.337 144.685C261.337 146.32 263.017 147.43 265.702 147.43C268.417 147.43 270.082 146.32 270.082 144.685ZM281.151 136.045C281.151 137.05 279.921 137.62 278.061 137.62C276.171 137.62 274.971 137.05 274.971 136.045C274.971 135.07 276.186 134.485 278.061 134.485C279.921 134.485 281.151 135.085 281.151 136.045ZM282.456 136.045C282.456 134.395 280.686 133.45 278.061 133.45C275.466 133.45 273.651 134.395 273.651 136.045C273.651 137.77 275.511 138.64 278.061 138.64C280.596 138.64 282.456 137.755 282.456 136.045ZM282.951 147.31V146.245H274.761V145H282.486V141.715H273.501V142.78H281.241V143.98H273.516V147.31H282.951ZM284.346 140.53V139.495H271.746V140.53H284.346ZM297.114 139.165C295.524 138.625 293.679 137.185 293.679 134.95V133.795H292.389V134.995C292.389 137.245 290.844 138.82 288.924 139.6L289.689 140.56C291.324 139.81 292.614 138.55 293.064 137.125C293.679 138.565 295.089 139.63 296.409 140.17L297.114 139.165ZM300.384 147.34V146.26H292.824V144.745H299.979V141.235H291.519V142.3H298.719V143.725H291.564V147.34H300.384ZM302.199 137.575V136.495H299.979V133.33H298.719V140.455H299.979V137.575H302.199ZM308.363 133.75V134.5C308.363 136.555 306.038 138.22 303.578 138.64L304.193 139.675C306.338 139.21 308.378 137.86 309.038 136.3C309.743 137.845 311.783 139.18 313.913 139.645L314.513 138.625C312.233 138.28 309.713 136.555 309.713 134.5V133.75H308.363ZM309.653 147.175V142.195H315.338V141.145H302.738V142.195H308.393V147.175H309.653ZM328.971 146.41C327.561 145.855 326.301 144.4 326.301 142.6V141.85H325.056V142.675C325.056 144.475 323.841 145.915 322.326 146.62L323.046 147.475C324.231 146.935 325.311 145.765 325.671 144.67C326.061 145.72 327.246 146.86 328.236 147.325L328.971 146.41ZM323.151 145.345C322.116 144.91 321.231 144.01 321.231 142.51V141.88H320.001V142.585C320.001 144.4 318.681 145.825 317.166 146.47L317.901 147.4C319.131 146.8 320.301 145.57 320.646 144.475C320.946 145.195 321.651 145.885 322.326 146.215L323.151 145.345ZM327.801 141.235V133.33H326.541V141.235H327.801ZM316.701 137.32C316.701 139.24 318.276 140.56 320.286 140.56C322.296 140.56 323.871 139.24 323.871 137.305C323.871 135.37 322.296 134.065 320.286 134.065C318.261 134.065 316.701 135.385 316.701 137.32ZM317.961 137.305C317.961 136.06 318.936 135.13 320.286 135.13C321.696 135.13 322.611 136.075 322.611 137.305C322.611 138.565 321.681 139.495 320.286 139.495C318.951 139.495 317.961 138.55 317.961 137.305ZM342.395 145.06V143.98H336.725V140.635H340.7V139.555H332.855V135.355H340.625V134.29H331.61V140.635H335.45V143.98H329.795V145.06H342.395ZM354.109 147.46V143.23H344.914V144.295H352.849V147.46H354.109ZM354.334 139.465V138.43H346.414V137.065H354.064V133.72H345.124V134.755H352.804V136.06H345.154V139.465H348.979V140.92H343.324V141.985H355.924V140.92H350.254V139.465H354.334Z" fill="#707070"/>
<path d="M117.283 155.5V154.465H113.473V155.5H117.283ZM115.348 158.29C116.473 158.29 117.238 158.59 117.238 159.16C117.238 159.76 116.473 160.015 115.348 160.015C114.268 160.015 113.488 159.76 113.488 159.16C113.488 158.59 114.253 158.29 115.348 158.29ZM119.383 157.06V156.055H111.328V157.06H119.383ZM124.108 159.49V158.395H121.978V154.33H120.733V162.685H121.978V159.49H124.108ZM118.468 159.175C118.468 158.05 117.163 157.345 115.348 157.345C113.593 157.345 112.258 158.05 112.258 159.175C112.258 160.18 113.263 160.855 114.763 160.99V161.65C113.413 161.695 111.958 161.71 110.953 161.71L111.133 162.775C112.228 162.775 113.878 162.745 115.348 162.655C116.923 162.58 118.813 162.415 119.923 162.28L119.818 161.305C118.918 161.425 117.433 161.53 116.023 161.605V160.975C117.523 160.825 118.468 160.165 118.468 159.175ZM122.458 168.4V167.38H114.568V166.345H121.978V163.465H113.278V164.47H120.733V165.385H113.308V168.4H122.458ZM125.607 155.59V156.67H130.662C130.407 159.685 128.337 162.325 124.932 163.84L125.697 164.86C129.297 163.12 131.967 160.09 132.042 155.59H125.607ZM134.907 167.725H136.167V154.33H134.907V167.725ZM146.336 160.555C144.431 160.96 141.641 161.08 139.991 161.035V159.055H144.821V155.125H138.716V156.175H143.576V158.005H138.731V162.115C141.851 162.175 144.461 162.01 146.486 161.605L146.336 160.555ZM148.976 168.4V163.495H140.306V164.56H147.716V168.4H148.976ZM151.181 158.95V157.87H148.976V154.33H147.716V162.745H148.976V158.95H151.181ZM152.245 159.79C152.245 162.46 153.61 164.275 155.8 164.275C157.99 164.275 159.37 162.46 159.37 159.805C159.37 157.12 157.99 155.305 155.8 155.305C153.61 155.305 152.245 157.12 152.245 159.79ZM153.505 159.79C153.505 157.78 154.45 156.43 155.8 156.43C157.18 156.43 158.125 157.78 158.125 159.79C158.125 161.815 157.18 163.165 155.8 163.165C154.45 163.165 153.505 161.815 153.505 159.79ZM161.98 167.725H163.24V154.33H161.98V167.725ZM175.333 155.5V154.465H171.523V155.5H175.333ZM173.398 158.29C174.523 158.29 175.288 158.59 175.288 159.16C175.288 159.76 174.523 160.015 173.398 160.015C172.318 160.015 171.538 159.76 171.538 159.16C171.538 158.59 172.303 158.29 173.398 158.29ZM177.433 157.06V156.055H169.378V157.06H177.433ZM182.158 159.49V158.395H180.028V154.33H178.783V162.685H180.028V159.49H182.158ZM176.518 159.175C176.518 158.05 175.213 157.345 173.398 157.345C171.643 157.345 170.308 158.05 170.308 159.175C170.308 160.18 171.313 160.855 172.813 160.99V161.65C171.463 161.695 170.008 161.71 169.003 161.71L169.183 162.775C170.278 162.775 171.928 162.745 173.398 162.655C174.973 162.58 176.863 162.415 177.973 162.28L177.868 161.305C176.968 161.425 175.483 161.53 174.073 161.605V160.975C175.573 160.825 176.518 160.165 176.518 159.175ZM180.508 168.4V167.38H172.618V166.345H180.028V163.465H171.328V164.47H178.783V165.385H171.358V168.4H180.508ZM194.291 162.835V154.33H193.046V156.415H190.226V157.48H193.046V158.965H190.226V160.03H193.046V162.835H194.291ZM190.616 160.825C188.861 161.155 186.401 161.23 184.556 161.185V159.1H189.311V155.095H183.296V156.16H188.066V158.05H183.296V162.265C186.221 162.31 188.786 162.235 190.751 161.845L190.616 160.825ZM194.291 168.445V163.6H185.396V164.68H193.046V168.445H194.291ZM205.675 157.045C205.675 158.05 204.445 158.62 202.585 158.62C200.695 158.62 199.495 158.05 199.495 157.045C199.495 156.07 200.71 155.485 202.585 155.485C204.445 155.485 205.675 156.085 205.675 157.045ZM206.98 157.045C206.98 155.395 205.21 154.45 202.585 154.45C199.99 154.45 198.175 155.395 198.175 157.045C198.175 158.77 200.035 159.64 202.585 159.64C205.12 159.64 206.98 158.755 206.98 157.045ZM207.475 168.31V167.245H199.285V166H207.01V162.715H198.025V163.78H205.765V164.98H198.04V168.31H207.475ZM208.87 161.53V160.495H196.27V161.53H208.87ZM218.968 156.355V155.275H215.308V156.355H218.968ZM220.318 158.74V157.66H213.898V158.74H216.508V158.95C216.508 161.59 215.233 163.15 213.568 164.08L214.333 164.965C215.638 164.23 216.808 162.835 217.153 161.47C217.528 162.715 218.773 164.05 219.973 164.665L220.693 163.705C219.193 162.985 217.783 161.515 217.783 158.905V158.74H220.318ZM225.568 167.725V154.33H224.338V159.565H222.643V154.585H221.413V167.14H222.643V160.63H224.338V167.725H225.568ZM229.377 157.69C229.377 156.58 230.397 155.875 231.717 155.875C233.052 155.875 234.057 156.58 234.057 157.69C234.057 158.77 233.052 159.505 231.717 159.505C230.397 159.505 229.377 158.77 229.377 157.69ZM232.287 167.44V162.64C233.757 162.565 235.422 162.445 236.547 162.295L236.442 161.275C235.122 161.425 233.322 161.53 231.702 161.605C230.292 161.68 228.537 161.71 227.127 161.71L227.277 162.82C228.432 162.82 229.767 162.76 231.027 162.7V167.44H232.287ZM237.582 167.74H238.842V154.33H237.582V163.675H234.282V164.74H237.582V167.74ZM228.162 157.69C228.162 159.385 229.632 160.555 231.717 160.555C233.847 160.555 235.287 159.385 235.287 157.705C235.287 155.995 233.847 154.81 231.717 154.81C229.632 154.81 228.162 155.995 228.162 157.69ZM251.711 161.815V160.735H243.866V156.52H251.606V155.455H242.606V161.815H251.711ZM253.391 165.91V164.845H240.791V165.91H253.391ZM262.78 160.195C261.085 160.555 258.01 160.66 256.315 160.615V158.83H261.175V155.005H255.025V156.07H259.915V157.795H255.055V161.695C258.055 161.725 260.935 161.59 262.915 161.23L262.78 160.195ZM264.625 162.025H265.87V154.33H264.625V162.025ZM264.625 167.155H258.475V165.505H264.625V167.155ZM265.885 168.235V162.805H264.625V164.455H258.475V162.835H257.215V168.235H265.885ZM276.518 162.355C274.808 162.745 272.033 162.97 269.963 162.97V155.5H268.703V164.08C271.568 164.095 274.763 163.855 276.668 163.42L276.518 162.355ZM278.003 167.725H279.278V154.33H278.003V167.725ZM281.947 164.185C285.037 164.275 287.782 164.095 289.732 163.72L289.597 162.64C287.962 162.985 285.082 163.15 283.207 163.075V156.595H288.337V155.53H281.947V164.185ZM294.412 160.405V159.34H292.132V154.33H290.872V167.725H292.132V160.405H294.412ZM295.686 166.705H297.036V165.295H295.686V166.705ZM296.826 164.05L297.126 155.245H295.611L295.881 164.05H296.826Z" fill="#4A4A4A"/>
</svg>
