<svg width="180" height="26" viewBox="0 0 180 26" fill="none" xmlns="http://www.w3.org/2000/svg">
<path d="M18.6267 8.04C18.6267 3.72 16.1067 1.44 10.6267 1.44H0.106715V2.36H1.02672C2.86672 2.36 3.14672 2.92 3.14672 4.92V21.56C3.14672 23.56 2.86672 24.12 1.02672 24.12H0.106715V25.04H8.58672V24.12H7.66672C5.82672 24.12 5.54672 23.56 5.54672 21.56V14.72H10.6267C16.1067 14.72 18.6267 12.36 18.6267 8.04ZM16.1467 8.04C16.1467 11.56 14.3067 13.44 10.3867 13.44H5.54672V5.36C5.54672 3.24 6.06672 2.72 8.22672 2.72H10.3867C14.3067 2.72 16.1467 4.52 16.1467 8.04ZM41.4842 25.04V24.12H40.4842C39.4042 24.12 38.8842 23.64 38.2442 22.52L33.3642 13.84C37.0042 13.12 38.6442 11 38.6442 7.76C38.6442 3.72 36.0442 1.44 30.3242 1.44H20.3242V2.36H21.2442C23.0842 2.36 23.3642 2.92 23.3642 4.92V21.56C23.3642 23.56 23.0042 24.12 21.2442 24.12H20.3242V25.04H28.6842V24.12H27.8842C26.0442 24.12 25.7642 23.56 25.7642 21.56V14.08H30.3642H30.8042L36.8442 25.04H41.4842ZM36.1642 7.76C36.1642 10.8 34.3242 12.8 30.2842 12.8H25.7642V5.36C25.7642 3.24 26.2842 2.72 28.4442 2.72H30.2842C34.3242 2.72 36.1642 4.72 36.1642 7.76ZM42.7777 13.24C42.7777 20.8 47.7777 25.68 54.8577 25.68C61.9377 25.68 66.9377 20.8 66.9377 13.24C66.9377 5.68 61.9377 0.799999 54.8577 0.799999C47.7777 0.799999 42.7777 5.68 42.7777 13.24ZM64.4577 13.24C64.4577 19.64 60.6177 24.28 54.8577 24.28C49.0977 24.28 45.2577 19.64 45.2577 13.24C45.2577 6.84 49.0977 2.2 54.8577 2.2C60.6177 2.2 64.4577 6.84 64.4577 13.24ZM92.6814 13.24C92.6814 5.68 87.6414 1.44 80.4414 1.44H69.0014V2.36H69.9214C71.7214 2.36 72.0414 2.92 72.0414 4.92V21.56C72.0414 23.56 71.6014 24.12 69.9214 24.12H69.0014V25.04H80.4414C87.6414 25.04 92.6814 20.8 92.6814 13.24ZM90.2014 13.24C90.2014 19.4 86.4014 23.76 80.7614 23.76H77.1214C74.9614 23.76 74.4414 23.24 74.4414 21.12V5.36C74.4414 3.24 74.9614 2.72 77.1214 2.72H80.7614C86.4014 2.72 90.2014 7.08 90.2014 13.24ZM94.7658 1.44V2.36H95.6858C97.5258 2.36 97.8058 2.92 97.8058 4.92V16.68C97.8058 22.68 101.206 25.64 106.926 25.64C112.566 25.64 116.206 22.92 116.206 16.68V4.92C116.206 2.92 116.486 2.36 118.326 2.36H119.246V1.44H112.046V2.36H112.766C114.606 2.36 114.886 2.92 114.886 4.92V16.6C114.886 21.84 112.326 24.24 107.646 24.24C102.846 24.24 100.206 22.04 100.206 16.6V4.92C100.206 2.92 100.486 2.36 102.326 2.36H103.046V1.44H94.7658ZM141.481 7.12L141.201 2.48C138.481 1.32 135.601 0.839999 133.401 0.839999C126.361 0.839999 121.321 5.68 121.321 13.24C121.321 20.8 126.361 25.64 133.401 25.64C136.601 25.64 139.681 24.4 142.161 21.68L141.441 21C139.041 23.28 136.481 24.24 133.401 24.24C127.761 24.24 123.801 19.4 123.801 13.24C123.801 7.08 127.761 2.24 133.401 2.24C137.361 2.24 138.761 3.12 139.681 5.36L140.481 7.32L141.481 7.12ZM162.354 0.159998L162.274 0.679998C162.194 1.24 161.994 1.44 161.274 1.44H146.354C145.634 1.44 145.434 1.28 145.434 0.639999V0.279999L144.714 0.159998L143.034 6.52L143.754 6.72L144.714 4.8C145.474 3.28 146.074 2.72 148.074 2.72H149.474C151.634 2.72 152.154 3.24 152.154 5.36V21.56C152.154 23.56 151.874 24.12 150.034 24.12H149.114V25.04H157.594V24.12H156.674C154.834 24.12 154.554 23.56 154.554 21.56V5.36C154.554 3.24 155.074 2.72 157.234 2.72H159.514C161.154 2.72 161.794 3.32 162.114 4.8L162.514 6.72L163.274 6.64L163.114 0.159998H162.354ZM178.564 6.32L178.284 2.16C176.404 1.24 174.564 0.839999 171.884 0.839999C167.764 0.839999 164.844 2.88 164.844 6.64C164.844 9.88 166.764 11.36 170.164 12.88L172.564 13.96C176.444 15.72 177.404 17.28 177.404 19.56C177.404 22.56 175.564 24.24 171.804 24.24C168.764 24.24 166.484 23 165.884 20.36L165.484 18.64L164.364 18.72L164.524 23.68C166.364 24.92 169.124 25.68 171.804 25.68C177.284 25.68 179.884 22.88 179.884 19.16C179.884 15.8 178.724 14.12 173.844 11.84L171.364 10.68C168.764 9.48 167.324 8.28 167.324 6.24C167.324 3.76 169.004 2.12 171.884 2.12C174.764 2.12 176.444 3.08 177.004 4.8L177.524 6.44L178.564 6.32Z" fill="#7B2429"/>
</svg>
