<svg width="283" height="18" viewBox="0 0 283 18" fill="none" xmlns="http://www.w3.org/2000/svg">
<path d="M11.038 14.06V13.54H10.478C9.91805 13.54 9.65805 13.36 9.35805 12.8L6.93805 8.44C8.73805 8.06 9.55805 6.96 9.55805 5.38C9.55805 3.42 8.25805 2.18 5.39805 2.18H0.0980469V2.7H0.618047C1.53805 2.7 1.67805 2.98 1.67805 3.98V12.26C1.67805 13.26 1.53805 13.54 0.618047 13.54H0.0980469V14.06H4.57805V13.54H4.17805C3.25805 13.54 3.11805 13.26 3.11805 12.26V8.58H5.41805L8.41805 14.06H11.038ZM8.07805 5.38C8.07805 6.84 7.29805 7.84 5.37805 7.84H3.11805V4.2C3.11805 3.14 3.37805 2.92 4.45805 2.92H5.37805C7.29805 2.92 8.07805 3.92 8.07805 5.38ZM12.8763 9.82C12.8763 9.6 12.8763 9.36 12.8963 9.14H20.1163C20.0163 6.98 18.2963 5.28 15.7963 5.28C13.1963 5.28 11.4363 7.02 11.4363 9.82C11.4363 12.62 13.4563 14.36 16.1363 14.36C17.3763 14.36 18.6963 13.74 19.4963 12.82L19.1563 12.46C18.3563 13.24 17.2363 13.62 16.1363 13.62C14.0763 13.62 12.8763 12.04 12.8763 9.82ZM13.0163 8.44C13.3763 6.98 14.3163 6.02 15.7963 6.02C17.6963 6.02 18.4163 7.28 18.5363 8.44H13.0163ZM22.3591 9.82C22.3591 7.6 23.4591 5.98 25.5191 5.98C26.5391 5.98 27.3791 6.26 28.1591 6.84V12.68C27.6191 13.24 26.5791 13.68 25.5191 13.68C23.4591 13.68 22.3591 12.04 22.3591 9.82ZM28.1591 14.06H30.9791V13.54H30.5191C29.7391 13.54 29.5591 13.26 29.5591 12.36V0.7H28.8591L27.0591 1.26V1.66H27.5791C27.9991 1.66 28.1591 1.84 28.1591 2.38V6.18C27.4591 5.58 26.2791 5.28 25.5191 5.28C22.7391 5.28 20.9191 6.98 20.9191 9.82C20.9191 12.66 22.7391 14.36 25.5191 14.36C26.4191 14.36 27.5591 13.96 28.1591 13.42V14.06ZM47.104 5L46.964 2.72C45.504 2.08 43.904 1.88 42.944 1.88C39.424 1.88 36.784 4.4 36.784 8.12C36.784 11.84 39.424 14.36 42.944 14.36C44.324 14.36 46.144 14.02 47.284 13.24V10.1C47.284 9.1 47.424 8.82 48.344 8.82H48.864V8.3H44.264V8.82H44.784C45.704 8.82 45.844 9.1 45.844 10.1V11.94C45.844 12.54 45.724 12.78 45.384 13C44.804 13.38 43.924 13.56 42.944 13.56C40.124 13.56 38.264 11.2 38.264 8.12C38.264 5.04 40.124 2.68 42.944 2.68C44.824 2.68 45.904 3.22 46.244 4.16L46.584 5.1L47.104 5ZM52.0699 5.58V12.36C52.0699 13.26 52.2499 13.54 53.0299 13.54H53.4699V14.06H49.2699V13.54H49.7099C50.4899 13.54 50.6699 13.26 50.6699 12.36V7.28C50.6699 6.74 50.5099 6.56 50.0899 6.56H49.5899V6.14L51.3899 5.58H52.0699ZM51.1899 3.98C51.7899 3.98 52.2699 3.56 52.2699 2.94C52.2699 2.32 51.7899 1.88 51.1899 1.88C50.5899 1.88 50.1099 2.32 50.1099 2.94C50.1099 3.56 50.5899 3.98 51.1899 3.98ZM59.1076 6.02C60.6276 6.02 61.2476 6.72 61.2476 8.42V12.36C61.2476 13.26 61.0676 13.54 60.2876 13.54H59.9076V14.06H64.0676V13.54H63.6076C62.8276 13.54 62.6476 13.26 62.6476 12.36V8.38C62.6476 6.34 61.5476 5.28 59.5076 5.28C58.2476 5.28 57.2676 5.8 56.5876 6.46V5.58H55.8676L54.0876 6.14V6.56H54.6076C55.0276 6.56 55.1876 6.74 55.1876 7.28V12.36C55.1876 13.26 55.0076 13.54 54.2276 13.54H53.7676V14.06H57.9076V13.54H57.5476C56.7676 13.54 56.5876 13.26 56.5876 12.36V7.14C57.3276 6.48 58.2876 6.02 59.1076 6.02ZM67.326 13.66C66.326 13.66 65.446 13.12 65.186 12.18L65.006 11.4L64.466 11.44L64.546 13.5C65.186 14.02 66.406 14.36 67.326 14.36C68.986 14.36 70.606 13.38 70.606 11.74C70.606 10.28 69.786 9.68 68.426 9.18L67.246 8.72C66.506 8.44 66.066 8.1 66.066 7.36C66.066 6.48 66.686 5.96 67.466 5.96C68.626 5.96 69.086 6.28 69.266 6.78L69.526 7.56L70.006 7.5L69.946 5.8C69.206 5.4 68.186 5.28 67.466 5.28C65.946 5.28 64.646 6.08 64.646 7.56C64.646 8.8 65.686 9.42 66.806 9.84L68.046 10.34C68.826 10.64 69.186 11.06 69.186 11.94C69.186 13.16 68.446 13.66 67.326 13.66ZM72.8498 9.82C72.8498 9.6 72.8498 9.36 72.8698 9.14H80.0898C79.9898 6.98 78.2698 5.28 75.7698 5.28C73.1698 5.28 71.4098 7.02 71.4098 9.82C71.4098 12.62 73.4298 14.36 76.1098 14.36C77.3498 14.36 78.6698 13.74 79.4698 12.82L79.1298 12.46C78.3298 13.24 77.2098 13.62 76.1098 13.62C74.0498 13.62 72.8498 12.04 72.8498 9.82ZM72.9898 8.44C73.3498 6.98 74.2898 6.02 75.7698 6.02C77.6698 6.02 78.3898 7.28 78.5098 8.44H72.9898ZM86.0326 6.02C87.5526 6.02 88.1726 6.72 88.1726 8.42V12.36C88.1726 13.26 87.9926 13.54 87.2126 13.54H86.8326V14.06H90.9926V13.54H90.5326C89.7526 13.54 89.5726 13.26 89.5726 12.36V8.38C89.5726 6.34 88.4726 5.28 86.4326 5.28C85.1726 5.28 84.1926 5.8 83.5126 6.46V5.58H82.7926L81.0126 6.14V6.56H81.5326C81.9526 6.56 82.1126 6.74 82.1126 7.28V12.36C82.1126 13.26 81.9326 13.54 81.1526 13.54H80.6926V14.06H84.8326V13.54H84.4726C83.6926 13.54 83.5126 13.26 83.5126 12.36V7.14C84.2526 6.48 85.2126 6.02 86.0326 6.02ZM95.391 10.68C97.591 10.68 98.951 9.56 98.951 7.98C98.951 7.58 98.851 7.2 98.671 6.86H100.111L100.211 6.16H98.131C97.511 5.62 96.551 5.28 95.391 5.28C93.231 5.28 91.831 6.4 91.831 7.98C91.831 9.12 92.551 10.02 93.771 10.44L92.531 11.24C92.151 11.5 91.711 11.82 91.711 12.26C91.711 12.74 92.291 13.14 93.431 13.3L92.671 13.84C91.791 14.42 91.191 14.88 91.191 15.78C91.191 17.26 92.711 17.86 94.831 17.86C97.531 17.86 100.251 16.6 100.251 14.4C100.251 13.02 99.351 12.08 98.031 12.08H94.311C93.671 12.08 93.311 11.98 93.311 11.68C93.311 11.56 93.391 11.38 93.511 11.28L94.291 10.58C94.631 10.64 94.991 10.68 95.391 10.68ZM98.811 14.64C98.811 16.3 96.631 17.12 94.831 17.12C93.231 17.12 92.631 16.4 92.631 15.58C92.631 15.06 92.731 14.56 93.191 14.16L94.031 13.42H97.351C98.431 13.42 98.811 13.88 98.811 14.64ZM95.391 9.94C94.051 9.94 93.271 9.12 93.271 7.98C93.271 6.84 94.051 6.02 95.391 6.02C96.731 6.02 97.511 6.84 97.511 7.98C97.511 9.12 96.731 9.94 95.391 9.94ZM110.2 1.34C110.7 1.34 111.04 1.6 111.2 1.98L111.48 2.7L112.06 2.64L112 0.939999C111.58 0.719999 110.92 0.6 110.32 0.6C109.6 0.6 108.72 1.04 108.06 1.92C107.52 2.64 107.28 3.36 107.28 4.34V5.58L105.94 5.86V6.3H107.28V12.36C107.28 13.26 107.1 13.54 106.32 13.54H105.86V14.06H110.08V13.54H109.62C108.84 13.54 108.66 13.26 108.66 12.36V6.28H110.84L110.94 5.58H108.66V3.8C108.66 2.3 108.94 1.34 110.2 1.34ZM117.019 13.62C114.999 13.62 113.799 12.04 113.799 9.82C113.799 7.6 114.999 6.02 117.019 6.02C119.039 6.02 120.239 7.6 120.239 9.82C120.239 12.04 119.039 13.62 117.019 13.62ZM117.019 14.36C119.699 14.36 121.679 12.56 121.679 9.82C121.679 7.08 119.699 5.28 117.019 5.28C114.339 5.28 112.359 7.08 112.359 9.82C112.359 12.56 114.339 14.36 117.019 14.36ZM124.406 5.58L122.606 6.14V6.56H123.126C123.546 6.56 123.706 6.74 123.706 7.28V12.36C123.706 13.26 123.526 13.54 122.746 13.54H122.286V14.06H126.526V13.54H126.066C125.286 13.54 125.106 13.26 125.106 12.36V7.28C125.726 6.54 126.646 6.02 127.406 6.02C127.926 6.02 128.186 6.24 128.346 6.66L128.626 7.34L129.206 7.28L129.146 5.62C128.726 5.4 128.126 5.28 127.526 5.28C126.746 5.28 125.686 5.9 125.106 6.58V5.58H124.406ZM138.554 6.02C139.734 6.02 140.214 6.54 140.214 7.46V8.8L137.514 9.28C135.614 9.64 134.714 10.66 134.714 12.06C134.714 13.74 136.094 14.36 137.054 14.36C137.774 14.36 138.534 14.16 139.154 13.78L140.214 13.04C140.214 13.82 140.714 14.38 141.434 14.38C141.954 14.38 142.654 14 143.034 13.62L142.794 13.22C142.614 13.36 142.314 13.52 142.054 13.52C141.794 13.52 141.614 13.34 141.614 12.9V7.42C141.614 5.78 140.114 5.28 138.554 5.28C137.634 5.28 136.334 5.64 135.354 6.26L135.294 8.06L135.874 8.12L136.174 7.28C136.454 6.52 137.394 6.02 138.554 6.02ZM140.214 9.4V12.4L139.074 13.14C138.734 13.36 138.334 13.44 137.934 13.44C137.114 13.44 136.154 13.08 136.154 11.86C136.154 10.7 136.734 10.1 137.774 9.88L140.214 9.4ZM158.643 14.06V13.54H158.183C157.403 13.54 157.223 13.26 157.223 12.36V8.38C157.223 6.34 156.123 5.28 154.083 5.28C152.823 5.28 151.843 5.8 151.163 6.46V0.7H150.463L148.663 1.26V1.68H149.183C149.603 1.68 149.763 1.86 149.763 2.4V12.36C149.763 13.26 149.583 13.54 148.803 13.54H148.343V14.06H152.483V13.54H152.123C151.343 13.54 151.163 13.26 151.163 12.36V7.14C151.903 6.48 152.863 6.02 153.683 6.02C155.203 6.02 155.823 6.72 155.823 8.42V12.36C155.823 13.26 155.643 13.54 154.863 13.54H154.503V14.06H158.643ZM160.481 9.82C160.481 9.6 160.481 9.36 160.501 9.14H167.721C167.621 6.98 165.901 5.28 163.401 5.28C160.801 5.28 159.041 7.02 159.041 9.82C159.041 12.62 161.061 14.36 163.741 14.36C164.981 14.36 166.301 13.74 167.101 12.82L166.761 12.46C165.961 13.24 164.841 13.62 163.741 13.62C161.681 13.62 160.481 12.04 160.481 9.82ZM160.621 8.44C160.981 6.98 161.921 6.02 163.401 6.02C165.301 6.02 166.021 7.28 166.141 8.44H160.621ZM172.364 6.02C173.544 6.02 174.024 6.54 174.024 7.46V8.8L171.324 9.28C169.424 9.64 168.524 10.66 168.524 12.06C168.524 13.74 169.904 14.36 170.864 14.36C171.584 14.36 172.344 14.16 172.964 13.78L174.024 13.04C174.024 13.82 174.524 14.38 175.244 14.38C175.764 14.38 176.464 14 176.844 13.62L176.604 13.22C176.424 13.36 176.124 13.52 175.864 13.52C175.604 13.52 175.424 13.34 175.424 12.9V7.42C175.424 5.78 173.924 5.28 172.364 5.28C171.444 5.28 170.144 5.64 169.164 6.26L169.104 8.06L169.684 8.12L169.984 7.28C170.264 6.52 171.204 6.02 172.364 6.02ZM174.024 9.4V12.4L172.884 13.14C172.544 13.36 172.144 13.44 171.744 13.44C170.924 13.44 169.964 13.08 169.964 11.86C169.964 10.7 170.544 10.1 171.584 9.88L174.024 9.4ZM179.247 0.7L177.467 1.26V1.68H177.967C178.387 1.68 178.547 1.86 178.547 2.4V12.36C178.547 13.26 178.367 13.54 177.587 13.54H177.147V14.06H181.347V13.54H180.907C180.127 13.54 179.947 13.26 179.947 12.36V0.7H179.247ZM183.305 3.58L183.245 3.96C183.025 5.3 182.745 5.68 181.845 5.82L181.445 5.88V6.3H182.585V12.6C182.585 13.74 183.205 14.36 184.425 14.36C185.125 14.36 185.885 14.02 186.445 13.38L186.145 13.04C185.705 13.42 185.305 13.64 184.905 13.64C184.305 13.64 183.985 13.24 183.985 12.58V6.28H186.065L186.165 5.58H183.985V3.58H183.305ZM196.936 14.06V13.54H196.476C195.696 13.54 195.516 13.26 195.516 12.36V8.38C195.516 6.34 194.416 5.28 192.376 5.28C191.116 5.28 190.136 5.8 189.456 6.46V0.7H188.756L186.956 1.26V1.68H187.476C187.896 1.68 188.056 1.86 188.056 2.4V12.36C188.056 13.26 187.876 13.54 187.096 13.54H186.636V14.06H190.776V13.54H190.416C189.636 13.54 189.456 13.26 189.456 12.36V7.14C190.196 6.48 191.156 6.02 191.976 6.02C193.496 6.02 194.116 6.72 194.116 8.42V12.36C194.116 13.26 193.936 13.54 193.156 13.54H192.796V14.06H196.936ZM200.714 17.8L205.094 6.98C205.354 6.32 205.634 6.1 206.294 6.1H206.734V5.58H203.274V6.1H203.654C204.414 6.1 204.614 6.36 204.374 6.98L202.194 12.44L199.954 7.08C199.674 6.42 199.914 6.1 200.674 6.1H201.034V5.58H196.834V6.1H197.274C197.874 6.1 198.154 6.36 198.474 7.08L201.554 14L200.854 15.78C200.514 16.64 200.214 16.76 199.274 16.76H198.654L198.874 17.8H200.714ZM215.617 17.8L219.997 6.98C220.257 6.32 220.537 6.1 221.197 6.1H221.637V5.58H218.177V6.1H218.557C219.317 6.1 219.517 6.36 219.277 6.98L217.097 12.44L214.857 7.08C214.577 6.42 214.817 6.1 215.577 6.1H215.937V5.58H211.737V6.1H212.177C212.777 6.1 213.057 6.36 213.377 7.08L216.457 14L215.757 15.78C215.417 16.64 215.117 16.76 214.177 16.76H213.557L213.777 17.8H215.617ZM225.97 13.62C223.95 13.62 222.75 12.04 222.75 9.82C222.75 7.6 223.95 6.02 225.97 6.02C227.99 6.02 229.19 7.6 229.19 9.82C229.19 12.04 227.99 13.62 225.97 13.62ZM225.97 14.36C228.65 14.36 230.63 12.56 230.63 9.82C230.63 7.08 228.65 5.28 225.97 5.28C223.29 5.28 221.31 7.08 221.31 9.82C221.31 12.56 223.29 14.36 225.97 14.36ZM238.597 14.06H241.417V13.54H240.957C240.177 13.54 239.997 13.26 239.997 12.36V5.58H239.297L237.497 6.14V6.56H238.017C238.437 6.56 238.597 6.74 238.597 7.28V12.46C237.837 13.12 236.897 13.58 236.077 13.58C234.557 13.58 233.937 12.88 233.937 11.18V5.58H233.237L231.437 6.14V6.56H231.957C232.377 6.56 232.537 6.74 232.537 7.28V11.26C232.537 13.3 233.637 14.36 235.677 14.36C236.937 14.36 237.897 13.86 238.597 13.18V14.06ZM243.738 5.58L241.938 6.14V6.56H242.458C242.878 6.56 243.038 6.74 243.038 7.28V12.36C243.038 13.26 242.858 13.54 242.078 13.54H241.618V14.06H245.858V13.54H245.398C244.618 13.54 244.438 13.26 244.438 12.36V7.28C245.058 6.54 245.978 6.02 246.738 6.02C247.258 6.02 247.518 6.24 247.678 6.66L247.958 7.34L248.538 7.28L248.478 5.62C248.058 5.4 247.458 5.28 246.858 5.28C246.078 5.28 245.018 5.9 244.438 6.58V5.58H243.738ZM256.146 0.7L254.366 1.26V1.68H254.866C255.286 1.68 255.446 1.86 255.446 2.4V12.36C255.446 13.26 255.266 13.54 254.486 13.54H254.046V14.06H258.246V13.54H257.806C257.026 13.54 256.846 13.26 256.846 12.36V0.7H256.146ZM261.543 5.58V12.36C261.543 13.26 261.723 13.54 262.503 13.54H262.943V14.06H258.743V13.54H259.183C259.963 13.54 260.143 13.26 260.143 12.36V7.28C260.143 6.74 259.983 6.56 259.563 6.56H259.063V6.14L260.863 5.58H261.543ZM260.663 3.98C261.263 3.98 261.743 3.56 261.743 2.94C261.743 2.32 261.263 1.88 260.663 1.88C260.063 1.88 259.583 2.32 259.583 2.94C259.583 3.56 260.063 3.98 260.663 3.98ZM267.581 1.34C268.081 1.34 268.421 1.6 268.581 1.98L268.861 2.7L269.441 2.64L269.381 0.939999C268.961 0.719999 268.301 0.6 267.701 0.6C266.981 0.6 266.101 1.04 265.441 1.92C264.901 2.64 264.661 3.36 264.661 4.34V5.58L263.321 5.86V6.3H264.661V12.36C264.661 13.26 264.481 13.54 263.701 13.54H263.241V14.06H267.461V13.54H267.001C266.221 13.54 266.041 13.26 266.041 12.36V6.28H268.221L268.321 5.58H266.041V3.8C266.041 2.3 266.321 1.34 267.581 1.34ZM271.18 9.82C271.18 9.6 271.18 9.36 271.2 9.14H278.42C278.32 6.98 276.6 5.28 274.1 5.28C271.5 5.28 269.74 7.02 269.74 9.82C269.74 12.62 271.76 14.36 274.44 14.36C275.68 14.36 277 13.74 277.8 12.82L277.46 12.46C276.66 13.24 275.54 13.62 274.44 13.62C272.38 13.62 271.18 12.04 271.18 9.82ZM271.32 8.44C271.68 6.98 272.62 6.02 274.1 6.02C276 6.02 276.72 7.28 276.84 8.44H271.32ZM281.563 0.96C280.863 0.96 280.643 1.58 280.683 2.14L280.863 5.3C280.943 6.6 281.123 8.96 281.183 10.68L281.223 11.76H281.903L281.943 10.68C282.003 8.96 282.183 6.6 282.263 5.3L282.443 2.14C282.483 1.58 282.263 0.96 281.563 0.96ZM281.563 15.3C282.183 15.3 282.723 14.84 282.723 14.18C282.723 13.52 282.183 13.06 281.563 13.06C280.943 13.06 280.403 13.52 280.403 14.18C280.403 14.84 280.943 15.3 281.563 15.3Z" fill="#B68787"/>
</svg>
