<svg width="322" height="50" viewBox="0 0 322 50" fill="none" xmlns="http://www.w3.org/2000/svg">
<path d="M12.0742 2.256V1.014H6.49419V2.256H12.0742ZM12.3442 7.17C12.3442 7.944 11.0662 8.394 9.24819 8.394C7.44819 8.394 6.15219 7.944 6.15219 7.17C6.15219 6.432 7.44819 5.982 9.24819 5.982C11.0662 5.982 12.3442 6.414 12.3442 7.17ZM15.5482 4.308V3.066H2.96619V4.308H15.5482ZM13.0102 15.234C13.0102 16.17 11.5522 16.782 9.24819 16.782C6.92619 16.782 5.50419 16.17 5.50419 15.234C5.50419 14.316 6.92619 13.686 9.24819 13.686C11.5522 13.686 13.0102 14.316 13.0102 15.234ZM14.5582 15.234C14.5582 13.542 12.6142 12.444 9.23019 12.444C5.90019 12.444 3.93819 13.578 3.93819 15.234C3.93819 16.926 5.91819 18.042 9.24819 18.042C12.5782 18.042 14.5582 16.962 14.5582 15.234ZM16.8082 11.742V10.5H10.0042V9.51C12.4342 9.366 13.8922 8.502 13.8922 7.188C13.8922 5.73 12.1282 4.902 9.24819 4.902C6.38619 4.902 4.60419 5.73 4.60419 7.188C4.60419 8.52 6.04419 9.366 8.47419 9.51V10.5H1.68819V11.742H16.8082ZM27.3728 8.574C25.4108 7.836 23.2868 5.856 23.2868 3.174V1.662H21.7388V3.228C21.7388 5.946 19.9208 7.998 17.5448 9.096L18.4988 10.248C20.4248 9.276 22.0448 7.674 22.5668 5.928C23.2148 7.584 24.8528 9.024 26.5088 9.762L27.3728 8.574ZM29.3528 16.368H22.2608V12.642H29.3528V16.368ZM30.8468 17.646V11.364H20.7668V17.646H30.8468ZM33.5108 6.414V5.118H30.8468V0.995999H29.3348V10.464H30.8468V6.414H33.5108ZM45.3714 11.67C44.0034 11.832 41.5734 11.994 39.4674 12.066C37.6134 12.156 35.5434 12.192 34.1754 12.174L34.3914 13.524C35.7774 13.524 37.8294 13.47 39.6294 13.38C41.5734 13.272 43.9314 13.11 45.4794 12.912L45.3714 11.67ZM35.0574 5.928C35.0574 8.106 36.9114 9.78 39.4314 9.78C41.9694 9.78 43.7874 8.16 43.7874 5.928C43.7874 3.606 41.9514 2.022 39.4314 2.022C36.9294 2.022 35.0574 3.642 35.0574 5.928ZM36.5874 5.928C36.5874 4.434 37.7934 3.354 39.4314 3.354C41.1054 3.354 42.2754 4.416 42.2754 5.928C42.2754 7.404 41.0694 8.484 39.4314 8.484C37.7754 8.484 36.5874 7.386 36.5874 5.928ZM46.4694 17.088H47.9634V0.995999H46.4694V17.088ZM56.2109 2.508V3.804H62.2769C61.9709 7.422 59.4869 10.59 55.4009 12.408L56.3189 13.632C60.6389 11.544 63.8429 7.908 63.9329 2.508H56.2109ZM67.3709 17.07H68.8829V0.995999H67.3709V17.07ZM78.1155 1.176V1.68C78.1155 3.966 75.1995 5.622 72.4095 6L73.0755 7.206C75.8295 6.72 78.1875 5.244 78.9075 3.624C79.7175 5.226 82.0935 6.702 84.7755 7.188L85.4595 6C82.8315 5.658 79.7175 3.984 79.7175 1.68V1.176H78.1155ZM84.7935 17.79V16.53H74.9655V15.054H84.2535V11.13H79.6635V9.51H86.4675V8.25H71.3475V9.51H78.1335V11.13H73.3995V12.408H82.7595V13.83H73.4715V17.79H84.7935ZM88.1761 7.548C88.1761 10.752 89.8141 12.93 92.4421 12.93C95.0701 12.93 96.7261 10.752 96.7261 7.566C96.7261 4.344 95.0701 2.166 92.4421 2.166C89.8141 2.166 88.1761 4.344 88.1761 7.548ZM89.6881 7.548C89.6881 5.136 90.8221 3.516 92.4421 3.516C94.0981 3.516 95.2321 5.136 95.2321 7.548C95.2321 9.978 94.0981 11.598 92.4421 11.598C90.8221 11.598 89.6881 9.978 89.6881 7.548ZM99.8581 17.07H101.37V0.995999H99.8581V17.07ZM121.93 17.79V16.512H112.804V14.658H121.444V10.464H111.238V11.742H119.932V13.434H111.31V17.79H121.93ZM124.09 5.964V4.668H121.444V0.995999H119.932V9.564H121.444V5.964H124.09ZM118.006 7.044C116.134 7.458 113.398 7.638 110.644 7.584V3.138H116.62V1.86H109.132V8.88C112.984 8.934 115.972 8.754 118.204 8.286L118.006 7.044ZM140.414 8.43V7.134H137.678V0.995999H136.166V17.07H137.678V8.43H140.414ZM134.744 11.184C132.494 11.634 128.966 11.796 126.914 11.76V8.07H132.89V2.274H125.384V3.552H131.378V6.81H125.402V13.074C129.056 13.128 132.494 12.93 134.888 12.462L134.744 11.184ZM153.301 17.07H154.795V0.995999H153.301V17.07ZM151.285 11.85C148.963 10.662 147.019 8.304 147.019 5.154V3.804H150.745V2.526H141.745V3.804H145.435V5.208C145.435 8.394 143.671 10.914 141.205 12.264L142.159 13.398C144.067 12.282 145.741 10.248 146.263 8.304C146.803 10.158 148.783 12.102 150.385 13.02L151.285 11.85ZM158.015 2.292V10.032H165.575V2.292H158.015ZM164.081 8.754H159.527V3.588H164.081V8.754ZM171.425 17.304V16.008H162.299V11.94H160.787V17.304H171.425ZM166.709 8.466H169.589V13.002H171.101V0.995999H169.589V3.714H166.709V5.01H169.589V7.17H166.709V8.466ZM173.836 15.918H174.79C174.754 16.836 174.34 17.358 173.53 17.646L173.818 18.33C174.844 18.006 175.636 17.196 175.636 15.612V14.154H173.836V15.918ZM193.645 14.424C193.645 15.702 192.259 16.548 190.045 16.548C187.849 16.548 186.481 15.684 186.481 14.424C186.481 13.146 187.849 12.264 190.045 12.264C192.259 12.264 193.645 13.128 193.645 14.424ZM195.211 14.424C195.211 12.426 193.285 10.986 190.045 10.986C186.841 10.986 184.933 12.408 184.933 14.424C184.933 16.44 186.841 17.826 190.045 17.826C193.285 17.826 195.211 16.422 195.211 14.424ZM191.701 7.746C189.829 8.142 186.877 8.376 184.339 8.322V3.444H190.207V2.166H182.827V9.618C186.571 9.69 189.649 9.456 191.899 9.024L191.701 7.746ZM197.749 6.522V5.226H195.103V0.995999H193.591V10.824H195.103V6.522H197.749ZM208.476 9.204C206.442 8.43 204.264 6.414 204.264 3.642V1.86H202.716V3.696C202.716 6.414 200.772 8.736 198.468 9.762L199.404 10.914C201.258 10.014 202.986 8.16 203.526 6.396C204.174 8.106 205.92 9.654 207.63 10.428L208.476 9.204ZM212.652 17.322V16.044H203.382V11.922H201.87V17.322H212.652ZM212.292 13.02V0.995999H210.798V13.02H212.292ZM215.26 7.548C215.26 10.752 216.898 12.93 219.526 12.93C222.154 12.93 223.81 10.752 223.81 7.566C223.81 4.344 222.154 2.166 219.526 2.166C216.898 2.166 215.26 4.344 215.26 7.548ZM216.772 7.548C216.772 5.136 217.906 3.516 219.526 3.516C221.182 3.516 222.316 5.136 222.316 7.548C222.316 9.978 221.182 11.598 219.526 11.598C217.906 11.598 216.772 9.978 216.772 7.548ZM226.942 17.07H228.454V0.995999H226.942V17.07ZM249.014 17.79V16.512H239.888V14.658H248.528V10.464H238.322V11.742H247.016V13.434H238.394V17.79H249.014ZM251.174 5.964V4.668H248.528V0.995999H247.016V9.564H248.528V5.964H251.174ZM245.09 7.044C243.218 7.458 240.482 7.638 237.728 7.584V3.138H243.704V1.86H236.216V8.88C240.068 8.934 243.056 8.754 245.288 8.286L245.09 7.044ZM267.498 8.43V7.134H264.762V0.995999H263.25V17.07H264.762V8.43H267.498ZM261.828 11.184C259.578 11.634 256.05 11.796 253.998 11.76V8.07H259.974V2.274H252.468V3.552H258.462V6.81H252.486V13.074C256.14 13.128 259.578 12.93 261.972 12.462L261.828 11.184ZM280.457 9.978H281.951V0.995999H280.457V9.978ZM280.457 16.44H273.131V14.244H280.457V16.44ZM277.793 3.282V2.004H268.955V3.282H272.609V3.678C272.609 6.144 270.683 8.16 268.379 9.042L269.225 10.23C271.097 9.42 272.807 7.872 273.383 6.234C274.085 7.782 275.759 9.186 277.469 9.816L278.261 8.574C276.119 7.872 274.139 6.072 274.139 3.642V3.282H277.793ZM281.969 17.718V10.914H280.457V13.002H273.131V10.932H271.601V17.718H281.969ZM294.73 10.626C292.678 11.094 289.348 11.364 286.864 11.364V2.4H285.352V12.696C288.79 12.714 292.624 12.426 294.91 11.904L294.73 10.626ZM296.512 17.07H298.042V0.995999H296.512V17.07ZM301.244 12.822C304.952 12.93 308.246 12.714 310.586 12.264L310.424 10.968C308.462 11.382 305.006 11.58 302.756 11.49V3.714H308.912V2.436H301.244V12.822ZM316.202 8.286V7.008H313.466V0.995999H311.954V17.07H313.466V8.286H316.202ZM317.731 15.846H319.351V14.154H317.731V15.846ZM319.099 12.66L319.459 2.094H317.641L317.965 12.66H319.099Z" fill="#F9F9F9"/>
<path d="M42.6984 44.232C42.6984 45.936 40.8504 47.064 37.8984 47.064C34.9704 47.064 33.1464 45.912 33.1464 44.232C33.1464 42.528 34.9704 41.352 37.8984 41.352C40.8504 41.352 42.6984 42.504 42.6984 44.232ZM44.7864 44.232C44.7864 41.568 42.2184 39.648 37.8984 39.648C33.6264 39.648 31.0824 41.544 31.0824 44.232C31.0824 46.92 33.6264 48.768 37.8984 48.768C42.2184 48.768 44.7864 46.896 44.7864 44.232ZM40.1064 35.328C37.6104 35.856 33.6744 36.168 30.2904 36.096V29.592H38.1144V27.888H28.2744V37.824C33.2664 37.92 37.3704 37.608 40.3704 37.032L40.1064 35.328ZM48.1704 33.696V31.968H44.6424V26.328H42.6264V39.432H44.6424V33.696H48.1704ZM64.3445 44.232C64.3445 45.936 62.4965 47.064 59.5445 47.064C56.6165 47.064 54.7925 45.912 54.7925 44.232C54.7925 42.528 56.6165 41.352 59.5445 41.352C62.4965 41.352 64.3445 42.504 64.3445 44.232ZM66.4325 44.232C66.4325 41.568 63.8645 39.648 59.5445 39.648C55.2725 39.648 52.7285 41.544 52.7285 44.232C52.7285 46.92 55.2725 48.768 59.5445 48.768C63.8645 48.768 66.4325 46.896 66.4325 44.232ZM61.7525 35.328C59.2565 35.856 55.3205 36.168 51.9365 36.096V29.592H59.7605V27.888H49.9205V37.824C54.9125 37.92 59.0165 37.608 62.0165 37.032L61.7525 35.328ZM69.8165 33.696V31.968H66.2885V26.328H64.2725V39.432H66.2885V33.696H69.8165ZM80.4706 38.856C80.4706 40.512 79.1506 41.664 77.3266 41.664C75.5266 41.664 74.1826 40.512 74.1826 38.856C74.1826 37.176 75.5266 36.024 77.3266 36.024C79.1266 36.024 80.4706 37.176 80.4706 38.856ZM82.5106 38.856C82.5106 36.216 80.2786 34.344 77.3266 34.344C74.3506 34.344 72.1666 36.24 72.1666 38.856C72.1666 41.472 74.3506 43.344 77.3266 43.344C80.2786 43.344 82.5106 41.472 82.5106 38.856ZM91.6066 36.864V35.112H87.9586V26.328H85.9426V47.76H87.9586V36.864H91.6066ZM83.5906 32.928V31.2H70.6306V32.928H83.5906ZM80.3746 29.208V27.48H73.9426V29.208H80.3746ZM109.317 47.784H111.309V26.328H109.317V47.784ZM93.2368 28.536V30.24H99.6688C99.4288 34.632 96.8128 38.832 92.1808 41.352L93.5248 42.888C96.4768 41.088 98.7088 38.832 100.101 36H104.877V46.824H106.845V26.736H104.877V34.296H100.821C101.421 32.568 101.733 30.648 101.757 28.536H93.2368ZM114.499 46.224H115.771C115.723 47.448 115.171 48.144 114.091 48.528L114.475 49.44C115.843 49.008 116.899 47.928 116.899 45.816V43.872H114.499V46.224ZM143.623 48.24V46.512H131.455V42.384H129.415V48.24H143.623ZM138.391 32.136V30.456H125.551V32.136H138.391ZM135.223 28.8V27.096H128.887V28.8H135.223ZM135.127 37.248C135.127 38.616 133.735 39.528 132.055 39.528C130.351 39.528 128.983 38.616 128.983 37.248C128.983 35.88 130.375 34.992 132.055 34.992C133.735 34.992 135.127 35.88 135.127 37.248ZM137.119 37.248C137.119 34.824 134.863 33.312 132.055 33.312C129.175 33.312 126.967 34.824 126.967 37.248C126.967 39.648 129.199 41.208 132.055 41.208C134.863 41.208 137.119 39.648 137.119 37.248ZM146.407 35.472V33.72H142.879V26.328H140.863V42.864H142.879V35.472H146.407ZM171.372 28.128H155.892V29.832H171.372V28.128ZM171.492 37.032H168.012L168.852 31.296L166.836 31.008L166.092 37.032H161.22L160.764 30.984L158.676 31.248L159.276 37.032H155.796V38.76H162.636V43.392H153.588V45.096H173.748V43.392H164.676V38.76H171.492V37.032ZM192.178 47.784H194.17V26.328H192.178V47.784ZM177.49 35.136C177.49 31.944 178.69 30 180.466 30C182.218 30 183.418 31.944 183.418 35.136C183.418 38.304 182.218 40.248 180.466 40.248C178.69 40.248 177.49 38.304 177.49 35.136ZM175.522 35.136C175.522 39.216 177.394 42.048 180.466 42.048C183.322 42.048 185.122 39.6 185.362 35.952H187.882V46.848H189.874V26.712H187.882V34.2H185.338C185.074 30.6 183.298 28.2 180.466 28.2C177.394 28.2 175.522 31.008 175.522 35.136ZM215.847 34.968C213.375 35.472 209.703 35.736 206.031 35.736V29.424H213.855V27.696H204.015V37.464C209.079 37.488 213.111 37.224 216.111 36.648L215.847 34.968ZM218.391 46.872H208.887V41.832H218.391V46.872ZM220.383 48.552V40.152H206.895V48.552H220.383ZM223.911 33.552V31.824H220.383V26.328H218.367V39H220.383V33.552H223.911ZM239.893 31.392C239.893 33.168 237.901 34.248 234.901 34.248C231.877 34.248 229.909 33.168 229.909 31.392C229.909 29.616 231.877 28.512 234.925 28.512C237.901 28.512 239.893 29.616 239.893 31.392ZM241.981 31.392C241.981 28.488 239.149 26.832 234.925 26.832C230.725 26.832 227.821 28.488 227.821 31.392C227.821 34.368 230.797 35.928 234.901 35.928C239.005 35.928 241.981 34.344 241.981 31.392ZM244.981 39.528V37.824H224.821V39.528H244.981ZM227.749 41.616V48.216H242.341V46.488H229.765V41.616H227.749ZM266.609 28.008V26.352H259.169V28.008H266.609ZM266.969 34.56C266.969 35.592 265.265 36.192 262.841 36.192C260.441 36.192 258.713 35.592 258.713 34.56C258.713 33.576 260.441 32.976 262.841 32.976C265.265 32.976 266.969 33.552 266.969 34.56ZM271.241 30.744V29.088H254.465V30.744H271.241ZM267.857 45.312C267.857 46.56 265.913 47.376 262.841 47.376C259.745 47.376 257.849 46.56 257.849 45.312C257.849 44.088 259.745 43.248 262.841 43.248C265.913 43.248 267.857 44.088 267.857 45.312ZM269.921 45.312C269.921 43.056 267.329 41.592 262.817 41.592C258.377 41.592 255.761 43.104 255.761 45.312C255.761 47.568 258.401 49.056 262.841 49.056C267.281 49.056 269.921 47.616 269.921 45.312ZM272.921 40.656V39H263.849V37.68C267.089 37.488 269.033 36.336 269.033 34.584C269.033 32.64 266.681 31.536 262.841 31.536C259.025 31.536 256.649 32.64 256.649 34.584C256.649 36.36 258.569 37.488 261.809 37.68V39H252.761V40.656H272.921ZM287.008 36.432C284.392 35.448 281.56 32.808 281.56 29.232V27.216H279.496V29.304C279.496 32.928 277.072 35.664 273.904 37.128L275.176 38.664C277.744 37.368 279.904 35.232 280.6 32.904C281.464 35.112 283.648 37.032 285.856 38.016L287.008 36.432ZM289.648 46.824H280.192V41.856H289.648V46.824ZM291.64 48.528V40.152H278.2V48.528H291.64ZM295.192 33.552V31.824H291.64V26.328H289.624V38.952H291.64V33.552H295.192Z" fill="#F9F9F9"/>
</svg>
